<?xml version="1.0" standalone="no"?><!DOCTYPE svg PUBLIC "-//W3C//DTD SVG 1.1//EN" "http://www.w3.org/Graphics/SVG/1.1/DTD/svg11.dtd"><svg t="1758454314664" class="icon" viewBox="0 0 1024 1024" version="1.1" xmlns="http://www.w3.org/2000/svg" p-id="34136" xmlns:xlink="http://www.w3.org/1999/xlink" width="200" height="200"><path d="M512 0A512 512 0 1 1 0 512 512 512 0 0 1 512 0z" fill="#F15E5E" p-id="34137"></path><path d="M511.239314 589.253486c72.630857 0 166.443886-93.813029 166.443886-214.849829S614.122057 204.946286 511.239314 204.946286c-102.882743-3.028114-169.457371 42.422857-169.457371 163.415771s99.854629 220.891429 169.457371 220.891429z m329.845029 157.359543a519.109486 519.109486 0 0 0-27.2384-57.490286c-18.154057-18.154057-118.023314-72.630857-160.387657-93.813029-12.097829-3.028114-27.2384 0-30.266515 9.084343l-51.448685 93.813029a17.071543 17.071543 0 0 1-30.266515-3.028115v-9.084342l12.097829-21.182172a19.017143 19.017143 0 0 0 0-18.154057l-21.182171-27.2384a34.5088 34.5088 0 0 0-18.154058-9.084343 21.562514 21.562514 0 0 0-18.154057 9.084343l-21.182171 27.2384a19.017143 19.017143 0 0 0 0 18.154057l12.097828 21.182172v9.084342c0 12.097829-21.182171 18.154057-30.266514 3.028115l-51.448686-93.813029a37.931886 37.931886 0 0 0-33.294628-9.084343c-45.348571 21.182171-145.247086 75.658971-163.415772 93.813029a204.1856 204.1856 0 0 0-27.2384 57.490286c-18.154057 30.266514 9.084343 63.546514 39.336229 63.546514h568.992914c42.349714 0 63.531886-33.28 51.419429-63.546514z m-290.5088-99.869258l-21.182172-27.2384a34.5088 34.5088 0 0 0-18.154057-9.084342 21.562514 21.562514 0 0 0-18.154057 9.084342l-21.182171 27.2384a19.017143 19.017143 0 0 0 0 18.154058l18.154057 33.28a88.810057 88.810057 0 0 1 9.084343 30.266514l3.028114 33.294628s9.084343 12.097829 12.097829 12.097829 12.097829-12.097829 12.097828-12.097829l3.028114-33.294628a58.382629 58.382629 0 0 1 9.084343-30.266514l18.154057-33.28c-3.028114-6.0416-3.028114-15.111314-6.056228-18.139429z" fill="#FFFFFF" p-id="34138"></path></svg>