<?xml version="1.0" standalone="no"?><!DOCTYPE svg PUBLIC "-//W3C//DTD SVG 1.1//EN" "http://www.w3.org/Graphics/SVG/1.1/DTD/svg11.dtd"><svg t="1762243616548" class="icon" viewBox="0 0 1024 1024" version="1.1" xmlns="http://www.w3.org/2000/svg" p-id="8413" xmlns:xlink="http://www.w3.org/1999/xlink" width="200" height="200"><path d="M992.320368 595.35181h-81.221141v-40.525343a42.6134 42.6134 0 0 0-42.613399-42.6134h-161.93092a42.6134 42.6134 0 0 0-42.6134 42.6134v40.525343H644.083664v-173.862671l123.024885-172.413816h45.852018a64.005327 64.005327 0 0 0 63.9201-63.9201V63.9201a64.005327 64.005327 0 0 0-63.9201-63.9201H227.79336a64.005327 64.005327 0 0 0-63.9201 63.9201v121.235123a64.005327 64.005327 0 0 0 63.9201 63.9201h46.150312l121.874324 170.83712v175.439367h-35.795256v-40.525343a42.6134 42.6134 0 0 0-42.6134-42.6134h-161.93092a42.6134 42.6134 0 0 0-42.6134 42.6134v40.525343H31.64388A31.022555 31.022555 0 0 0 0.621325 626.416979v283.421723a31.022555 31.022555 0 0 0 31.022555 31.022555h81.22114v40.525343a42.6134 42.6134 0 0 0 42.6134 42.6134h161.93092a42.6134 42.6134 0 0 0 42.6134-42.6134v-40.525343h303.876155v40.525343a42.6134 42.6134 0 0 0 42.613399 42.6134h161.973534a42.6134 42.6134 0 0 0 42.613399-42.6134v-40.525343h81.221141A31.022555 31.022555 0 0 0 1023.342923 909.796088V626.416979a31.022555 31.022555 0 0 0-31.022555-31.065169zM558.856864 482.000166v112.073242h-77.769455v-112.073242z m4.1335-93.621639v-139.345818h99.417062zM249.057446 85.2268h542.553808v78.621723h-67.755306l-0.426134-0.340908-0.25568 0.340908H317.835474l-0.213067-0.340908-0.468748 0.340908H249.057446z m228.663504 163.848523v138.919683L378.602182 249.032709zM112.86502 855.591844H85.848125v-175.013234h27.016895z m161.93092 83.138743h-76.70412v-341.333334h76.70412z m389.102955-83.138743h-303.833542v-175.013234h303.833542z m161.973533 83.138743h-76.70412v-341.333334h76.70412zM938.116123 855.591844h-27.016896v-175.013234H938.116123z" fill="#3FA9F5" p-id="8414"></path></svg>