<?xml version="1.0" standalone="no"?><!DOCTYPE svg PUBLIC "-//W3C//DTD SVG 1.1//EN" "http://www.w3.org/Graphics/SVG/1.1/DTD/svg11.dtd"><svg t="1762243570736" class="icon" viewBox="0 0 1024 1024" version="1.1" xmlns="http://www.w3.org/2000/svg" p-id="7353" xmlns:xlink="http://www.w3.org/1999/xlink" width="200" height="200"><path d="M995.2 360.2h-84.4c-3.8 0-7-3.2-7-7v-60c0-95.6-77.6-173.2-173.2-173.2h-121.8c-3.8 0-7-3.2-7-7v-46c0-3.8 3.2-7 7-7h46c3.8 0 7-3.2 7-7v-46c0-3.8-3.2-7-7-7H369c-3.8 0-7 3.2-7 7v46c0 3.8 3.2 7 7 7h46c3.8 0 7 3.2 7 7v46c0 3.8-3.2 7-7 7h-121.8c-95.6 0-173.2 77.6-173.2 173.2v60c0 3.8-3.2 7-7 7h-82.8c-16.8 0-30.2 13.6-30.2 30.2 0 16.4 13.4 29.8 29.8 29.8h83.4c3.8 0 7 3.2 7 7v589.6c0 3.8 3.2 7 7 7h769.8c3.8 0 7-3.2 7-7V427.4c0-3.8 3.2-7 7-7h81.8c17.2 0 31.2-14 31.2-31.2 0-16-12.8-29-28.8-29zM489 60h46c3.8 0 7 3.2 7 7v46c0 3.8-3.2 7-7 7h-46c-3.8 0-7-3.2-7-7v-46c0-3.8 3.2-7 7-7z m-202.8 120h444.6c62.4 0 113.2 50.6 113.2 113.2 0 3.8-3.2 7-7 7H187.2c-3.8 0-7-3.2-7-7V286.2c-0.2-58.6 47.4-106.2 106-106.2zM180 957V367.2c0-3.8 3.2-7 7-7h649.8c3.8 0 7 3.2 7 7v589.6c0 3.8-3.2 7-7 7H187.2c-4 0.2-7.2-3-7.2-6.8z" fill="#1190FB" p-id="7354"></path><path d="M454.4 783.8h118.2c16.2 0 29.4 13.2 29.4 29.4 0 16.8-13.6 30.6-30.6 30.6h-122.2c-15.2 0-27.6-12.4-27.6-27.6 0.4-17.8 14.8-32.4 32.8-32.4zM453 663.8h119.6c16.4 0 29.6 13.2 29.6 29.6 0 16.8-13.6 30.4-30.4 30.4h-120.8c-16 0-29-13-29-29 0-17.2 13.8-31 31-31z" fill="#1190FB" p-id="7355"></path></svg>