<?xml version="1.0" standalone="no"?><!DOCTYPE svg PUBLIC "-//W3C//DTD SVG 1.1//EN" "http://www.w3.org/Graphics/SVG/1.1/DTD/svg11.dtd"><svg t="1758454523101" class="icon" viewBox="0 0 1024 1024" version="1.1" xmlns="http://www.w3.org/2000/svg" p-id="41202" xmlns:xlink="http://www.w3.org/1999/xlink" width="200" height="200"><path d="M536.7808 20.829365a188.656941 188.656941 0 0 0 18.383812 16.215341c77.751718 58.741459 218.858918 97.460706 347.569694 105.893647 4.722447 0.301176 10.806212 0.602353 18.239247 0.927623 9.577412 0.385506 17.142965 8.637741 17.142965 18.672942v381.891764c0 90.810729-37.406118 186.006588-97.653459 251.337789-31.274165 43.670588-71.246306 84.630588-113.170071 124.988235-110.832941 120.193506-298.887529 119.675482-419.442447 13.251765-47.381082-41.815341-90.750494-90.690259-130.096188-146.600659C120.591059 722.654871 88.810918 637.686965 88.810918 549.4784V163.213553c0-10.0352 7.565553-18.275388 17.130917-18.672941 8.710024-0.361412 15.781647-0.746918 21.202824-1.120377 129.373365-8.914824 270.649224-48.272565 347.244423-107.700706 4.9152-3.806871 10.324329-8.685929 16.203294-14.613082a32.394541 32.394541 0 0 1 46.188424-0.265035z m52.609506 634.048753H446.367624v143.022682h143.022682V654.878118z m0-393.312377H446.367624l40.863623 357.556706h61.199059l40.96-357.556706z" fill="#FF7980" p-id="41203"></path></svg>