<?xml version="1.0" standalone="no"?><!DOCTYPE svg PUBLIC "-//W3C//DTD SVG 1.1//EN" "http://www.w3.org/Graphics/SVG/1.1/DTD/svg11.dtd"><svg t="1758452944100" class="icon" viewBox="0 0 1024 1024" version="1.1" xmlns="http://www.w3.org/2000/svg" p-id="26222" xmlns:xlink="http://www.w3.org/1999/xlink" width="200" height="200"><path d="M440.09 423.69c0-1.57 1.72-2.54 3.06-1.72 7.29 4.46 16.07 8.42 22.86 8.42 23.32 0 44.06-20.73 44.06-54.43 0-31.1-12.96-51.84-38.88-51.84-9.57 0-19.14 4.42-28.7 11.21-1.16 0.82-2.78 0.22-3.12-1.15l-1.48-5.94c-0.22-0.9-1.03-1.53-1.96-1.53H416.2c-1.11 0-2.02 0.9-2.02 2.02v135.92c0 1.11 0.9 2.02 2.02 2.02h21.88c1.11 0 2.02-0.9 2.02-2.02v-40.96z m2.59-67.62c0-0.54 0.22-1.06 0.6-1.44 7.45-7.31 12.56-9.77 20.13-9.77 15.55 0 20.74 12.96 20.74 31.1 0 20.6-10.23 30.96-23.08 33.64-0.17 0.03-0.34 0.05-0.5 0.05-4.89-0.08-9.83-2.47-16.98-7.17-0.57-0.37-0.91-1.01-0.91-1.69v-44.72zM561.79 374.09c0-0.67 0.34-1.29 0.89-1.67 7.94-5.41 13.46-10.64 21.58-10.64 11.24 0 16.86 5.62 16.86 22.47v62.6c0 1.11 0.9 2.02 2.02 2.02h24.06c1.11 0 2.02-0.9 2.02-2.02v-68.22c0-28.09-11.24-44.94-33.71-44.94-12.26 0-22.37 6.41-30.35 13.64-1.3 1.18-3.37 0.26-3.37-1.49v-52.28c0-1.11-0.9-2.02-2.02-2.02h-24.06c-1.11 0-2.02 0.9-2.02 2.02v153.29c0 1.11 0.9 2.02 2.02 2.02h24.06c1.11 0 2.02-0.9 2.02-2.02v-72.76z" fill="#606060" p-id="26223"></path><path d="M367.06 569.57c39.08 38.52 90.7 59.74 145.35 59.74 27.48 0 54.36-5.59 79.89-16.61 24.46-10.56 46.54-25.59 65.61-44.66 19.08-19.08 34.1-41.15 44.66-65.61 11.02-25.53 16.61-52.41 16.61-79.89 0-65.34-59.45-170.33-120.35-272.26-12.26-20.52-22.85-38.25-27.49-47.53l-0.31-0.62-56.86-101.1c-0.77-1.37-2.74-1.37-3.52 0l-56.1 99.76-0.06 0.09-1.59 2.49C353.81 258.9 305.65 363.29 305.65 422.53c0 55.78 21.81 108 61.41 147.04z m133.95-435.54l2.02-3.17c0.02-0.03 0.04-0.06 0.05-0.09l7.57-13.4c0.77-1.37 2.74-1.37 3.51 0l6.49 11.54c5.67 11.22 16.09 28.65 29.21 50.62 21.23 35.54 50.32 84.22 73.46 130.67 32.08 64.39 38.82 96.63 38.82 112.34 0 81.16-68.57 149.73-149.74 149.73-82.56 0-149.73-67.17-149.73-149.73 0.02-26.68 17.99-99.62 138.34-288.51z" fill="#606060" p-id="26224"></path><path d="M950.97 960.7c5.53 0 10.01-4.49 10-10.02l-0.82-393.7c-0.01-5.51-4.49-9.98-10-9.98H703.58c4.52-7.77 8.58-15.81 12.16-24.11 5.52-12.78 9.76-25.87 12.74-39.19h201.66c8.07 0 12.81-9.06 8.22-15.69l-184.3-266.03a9.998 9.998 0 0 0-8.22-4.31H636.22c-10.62-18.38-21.58-36.89-32.58-55.3-1.14-1.9-2.25-3.77-3.36-5.63H777.7c3.28 0 6.35 1.61 8.22 4.31l237.37 342.65h0.01l1.11 530.28c0.01 5.53-4.47 10.02-10 10.02H10.43c-5.52 0-10-4.48-10-10V483.7h0.12l233.88-342.59a9.987 9.987 0 0 1 8.26-4.36h175.07c-13.08 21.3-25.15 41.6-36.25 60.93h-106.7a10 10 0 0 0-8.26 4.36L84.95 468.06c-4.53 6.64 0.22 15.64 8.26 15.64h198.57c4.75 22.3 12.86 43.6 24.1 63.3H73.73c-5.52 0-10 4.48-10 10v393.7c0 5.52 4.48 10 10 10h14.85" fill="#606060" p-id="26225"></path><path d="M345.626 340.923l44.397-46.092 244.22 235.233-44.397 46.093zM33 694h949.33v64H33z" fill="#606060" p-id="26226"></path><path d="M53.897 703.14l74.664-73.334 44.845 45.657-74.664 73.335zM190.652 703.145l74.664-73.336 44.845 45.658-74.664 73.335zM328.646 703.147l74.665-73.335 44.845 45.657-74.665 73.335zM469.64 703.15l74.665-73.336 44.845 45.657-74.665 73.336zM610.635 703.151l74.664-73.335 44.845 45.657-74.665 73.336zM751.629 703.153l74.664-73.335 44.845 45.658-74.664 73.335zM895.623 703.155l74.664-73.335 44.845 45.658-74.664 73.335z" fill="#606060" p-id="26227"></path><path d="M33 735h938v252H33z" fill="#606060" p-id="26228"></path></svg>