<?xml version="1.0" standalone="no"?><!DOCTYPE svg PUBLIC "-//W3C//DTD SVG 1.1//EN" "http://www.w3.org/Graphics/SVG/1.1/DTD/svg11.dtd"><svg t="1758452836033" class="icon" viewBox="0 0 1024 1024" version="1.1" xmlns="http://www.w3.org/2000/svg" p-id="22222" xmlns:xlink="http://www.w3.org/1999/xlink" width="200" height="200"><path d="M512 426.8m-104.7 0a104.7 104.7 0 1 0 209.4 0 104.7 104.7 0 1 0-209.4 0Z" fill="#040000" p-id="22223"></path><path d="M895.1 519.9c24.1-10 36.8-32.6 36.8-55.3 0-17.9-7.9-35.8-24.3-47.9-27.7-20.2-32.6-59.7-10.6-86.1 9.4-11.4 13.8-24.8 13.8-37.8 0-27.8-19.7-54.6-50.9-59.3-29.8-4.5-50.7-30.1-50.7-58.9 0-4.1 0.3-8.3 1.3-12.5 8.1-38.5-22-72.1-58.1-72.1-6.5 0-13.1 1-19.8 3.4-6.5 2.2-13 3.3-19.4 3.3-26.1 0-50.2-17.1-57.5-43.5-7.8-27.7-32.5-43.5-57.6-43.5-15.5 0-31.2 5.9-43.3 18.8-11.8 12.6-27.6 18.7-43.5 18.7-15.8 0-31.7-6.2-43.4-18.6-12.1-12.8-27.7-18.7-43.1-18.7-25.3 0-50 15.9-57.7 43.8-7.3 26.5-31.4 43.6-57.4 43.6-6.4 0-13-1-19.4-3.3-39.8-13.6-79.1 16.6-79.1 56.1 0 4.2 0.5 8.5 1.4 12.9 0.9 4.3 1.4 8.6 1.4 12.8 0 28.7-20.9 54.2-50.6 58.8-31.1 4.8-50.6 31.4-50.6 59.2 0 13.1 4.4 26.5 14 37.9 9.3 11.2 13.8 24.8 13.8 38.3 0 18.2-8.3 36.2-24.2 47.9-16.4 12.1-24.2 30-24.2 47.8 0 22.8 12.8 45.4 36.9 55.3 23.2 9.5 36.9 31.9 36.9 55.3 0 8.6-1.9 17.5-5.9 25.8-19.4 40.1 10.1 85.6 53.3 85.6 2 0 3.8 0 5.8-0.2 1.9-0.1 3.7-0.2 5.6-0.2 1.9 0 3.8 0.1 5.7 0.2l-92.9 160.7c-14.2 24.8 6.1 55 34.3 51.3l91-12.1c15.5-2.1 30.4 6.5 36.3 20.9l35 84.8c10.9 26.4 47.4 28.9 61.6 4.1l91.6-158.6c7.9 3.6 16.5 5.5 25.1 5.5 11.2 0 22.3-3.1 32-9.3l93.8 162.4c14.3 24.8 50.7 22.3 61.7-4.1l35-84.8c5.9-14.4 20.8-23 36.3-20.9l90.9 12.1c28.3 3.7 48.6-26.5 34.3-51.3l-93.3-161.6c0.8 0 1.6 0.1 2.4 0.1 36.7 3.4 65-26.2 65-59.3 0-8.7-2-17.6-6.2-26.2-4.2-8.5-6.1-17.3-6.1-26.2 0.1-23.3 13.8-45.6 36.8-55.1z m-211.3 4.7c-13.8 24.3-32.7 45.5-55.2 61.9-12.9 9.4-26.9 17.3-41.8 23.5-7.5 3.1-15.2 5.7-23.1 7.8-3.9 1.1-7.9 2-12 2.8-8.1 1.6-16.3 2.8-24.8 3.4l-20.4 0.5c-17.8-0.5-35-3.4-51.4-8.3-28.6-8.6-54.5-23.6-76-43.2-3.1-2.8-6.1-5.7-9-8.7-11.6-12-21.6-25.4-29.9-40-16.5-28.7-25.9-62.1-25.9-97.5C314.2 317.7 403 229 512 229s197.8 88.7 197.8 197.8c0 35.5-9.4 68.9-26 97.8z" fill="#040000" p-id="22224"></path></svg>