<?xml version="1.0" standalone="no"?><!DOCTYPE svg PUBLIC "-//W3C//DTD SVG 1.1//EN" "http://www.w3.org/Graphics/SVG/1.1/DTD/svg11.dtd"><svg t="1758454684073" class="icon" viewBox="0 0 1024 1024" version="1.1" xmlns="http://www.w3.org/2000/svg" p-id="54077" xmlns:xlink="http://www.w3.org/1999/xlink" width="200" height="200"><path d="M692.6 813.6H377.7c-5.7 0-10.3-4.7-10.3-10.3v-6.9c0-5.7 4.7-10.3 10.3-10.3h314.9c5.7 0 10.3 4.7 10.3 10.3v6.9c0.1 5.6-4.6 10.3-10.3 10.3zM440.7 786c102.8-88.5 96.8-208.9 67.5-273.5 54.1-20.9 70.7-37.8 76.3-91.5 60.2 55.4 54.5 295.8 48.2 365h-192z m99.4-428.2c-4.9-2.2-10.1-3.8-15.3-4.9-0.1 0-0.2-0.1-0.3-0.1-5.4-1.1-11.1-1.7-16.8-1.7-45.6 0-82.4 37.3-82.4 83.4 0 5.9 0.7 11.5 1.7 17.1 0 0.1 0.1 0.2 0.1 0.3 1.1 5.3 2.8 10.6 4.9 15.5L326.7 573.6c-13.9 14-36.2 14-50 0l-75-75.8c-13.9-14-13.9-36.6 0-50.5l335.5-339.2c13.9-14 36.2-14 50 0l75 75.8c13.9 14 13.9 36.6 0 50.5L540.1 357.8z" fill="#1976D2" p-id="54078"></path><path d="M504.7 430.5m-80.3 0a80.3 80.3 0 1 0 160.6 0 80.3 80.3 0 1 0-160.6 0Z" fill="#FFFFFF" p-id="54079"></path><path d="M248 445.2c-8 0-14.5 6.5-14.5 14.5s6.5 14.5 14.5 14.5 14.5-6.5 14.5-14.5c0-8.1-6.5-14.5-14.5-14.5z m305.3-14.7c0 24.1-19.5 43.6-43.6 43.6-24 0-43.6-19.5-43.6-43.6s19.5-43.6 43.6-43.6c24.1 0.1 43.6 19.6 43.6 43.6z" fill="#42A5F5" p-id="54080"></path><path d="M297 677.5l-3.7 3.6c-4 4-10.6 4-14.6-0.1L99.8 500c-4-4-4-10.6 0.1-14.6l3.7-3.6c4-4 10.6-4 14.6 0.1L297.1 663c4 3.9 4 10.5-0.1 14.5z" fill="#00BCD4" p-id="54081"></path><path d="M630.6 602.3c-0.6-4.7-0.8-9.6-1.9-14.1-2.8-11.1 1.4-19.5 9.7-26.1 12.6-10.2 27.7-14.4 43.4-16.3 11-1.3 19 3.7 23.8 13.9 2.6 5.5 5.5 10.6 10 14.9 14 13.4 37.5 7 45.5-9.4 1.9-3.9 4.4-7.7 7.1-11.2 5.3-6.8 12.5-9.3 20.9-8.1 13.5 2 26.5 5.6 37.3 14.4 6.4 5.2 12.3 10.8 14 19.5 1.1 5.3-0.6 10.2-2.3 14.9-1.9 5.3-2.8 10.7-2.3 16.3 1.1 12.7 12.4 23.4 25.2 23.9 6.8 0.3 13.3-1 19.6-3.6 12.6-5.2 23.4-1.8 31.4 9.2 9.2 12.7 13.5 27.3 15.1 42.5 1.1 10.5-4 19-15.8 24.2-5.3 2.3-9.9 5.4-13.9 9.6-13.1 13.9-8.8 36.3 8.5 44.4 5.9 2.8 11.5 6 15.5 11.4 5.1 6.9 6.1 14.5 4.7 22.7-2.3 13-6.3 25.4-15.3 35.5-8.1 9.1-17.9 13.3-30.1 10.2-8.5-2.2-17-3.8-25.9-2.2-9.4 1.7-18 11.1-18.7 20.8-0.4 6.2 0 12.2 2.6 18 5.9 13.2 0.1 26.6-10.3 33.7-11.9 8.1-25 12.9-39.1 14.8-11.7 1.5-21.2-4.6-26.7-16.9-3.6-8.1-8.8-14.6-17-18.3-9.6-4.3-18.7-2.8-26.9 3.4-5.3 3.9-9.4 8.9-11.8 15.1-5.7 14.5-19.5 18.5-31.7 16.2-15.1-2.8-29.4-7.8-41.5-17.7-5.5-4.5-9.6-9.7-10.8-17.1-0.8-5 0.4-9.5 2.1-13.9 2.2-5.7 4.1-11.2 3.8-17.4-0.5-10.4-8.3-19.2-18.6-20.6-8.1-1.1-15.8 0.5-23.6 2.2-11.3 2.6-20.7-0.7-27.7-9.9-9.2-12.1-14.5-25.9-15.5-40.9-0.9-12 3.1-21.8 15.3-26.9 8.8-3.7 16-9.6 20.3-18.3 4.1-8.4 3.5-16.9-2.4-23.9-4-4.8-9-9.9-14.6-11.9-16.1-5.6-21.2-22.8-17.9-36.8 2.9-12.4 6.9-24.3 15.5-34 6.3-7.3 13.9-11.3 24.1-8.4 6.7 1.9 13.4 4.2 20.7 3.7 12.8-0.8 24.6-7.9 25.7-23.9 0.2-2.5 0.3-5 0.5-7.5-0.2-0.1-0.1-0.1 0-0.1z" fill="#43A047" p-id="54082"></path><path d="M819.3 735.2c0.4 46.1-37.4 83.7-84.5 84.2-46.3 0.5-84.5-37.4-84.6-83.9-0.1-46.1 37-83.2 84-83.8 46.5-0.6 84.8 36.9 85.1 83.5z" fill="#FFFFFF" p-id="54083"></path></svg>