<?xml version="1.0" standalone="no"?><!DOCTYPE svg PUBLIC "-//W3C//DTD SVG 1.1//EN" "http://www.w3.org/Graphics/SVG/1.1/DTD/svg11.dtd"><svg t="1758453448762" class="icon" viewBox="0 0 1024 1024" version="1.1" xmlns="http://www.w3.org/2000/svg" p-id="51887" xmlns:xlink="http://www.w3.org/1999/xlink" width="200" height="200"><path d="M324.489275 460.057971a170.221449 170.221449 0 0 0 282.564638 128.296812l26.787246 21.815652 28.419711 23.81913A25.822609 25.822609 0 0 0 694.687536 593.623188l-28.568116-24.190145L640.296812 549.101449a170.666667 170.666667 0 1 0-315.807537-89.043478z m303.564058 0a133.565217 133.565217 0 1 1-133.565217-133.565217 133.565217 133.565217 0 0 1 133.565217 133.565217z" fill="#FE7878" p-id="51888"></path><path d="M396.911304 460.057971a18.550725 18.550725 0 0 0 37.10145 0 60.92058 60.92058 0 0 1 60.772174-60.846377 18.550725 18.550725 0 0 0 0-37.101449A98.022029 98.022029 0 0 0 396.911304 460.057971z" fill="#FE7878" p-id="51889"></path><path d="M229.583768 242.495072V469.704348A409.08058 409.08058 0 0 0 512 860.753623a409.154783 409.154783 0 0 0 281.971014-391.049275V242.495072a589.616232 589.616232 0 0 0-564.387246 0z m533.147826 30.571595v198.344347a376.431304 376.431304 0 0 1-245.388985 354.912464 14.84058 14.84058 0 0 1-10.982029 0 376.282899 376.282899 0 0 1-245.388986-354.912464V273.066667a15.656812 15.656812 0 0 1 8.904348-14.098551 557.931594 557.931594 0 0 1 483.951304 0 15.656812 15.656812 0 0 1 8.904348 14.098551z" fill="#FE7878" p-id="51890"></path><path d="M883.014493 6.752464H140.985507a133.565217 133.565217 0 0 0-133.565217 133.565217v742.028986a133.565217 133.565217 0 0 0 133.565217 133.565217h742.028986a133.565217 133.565217 0 0 0 133.565217-133.565217v-742.028986a133.565217 133.565217 0 0 0-133.565217-133.565217z m-57.433044 463.768116a440.394203 440.394203 0 0 1-309.277681 421.324058 15.731014 15.731014 0 0 1-9.423768 0 440.32 440.32 0 0 1-308.684058-422.14029c0-253.996522-3.264928-243.830725 8.013913-250.137971a620.484638 620.484638 0 0 1 611.58029 0c11.278841 6.307246 8.013913-3.858551 8.013913 250.954203z" fill="#FE7878" p-id="51891"></path></svg>