<?xml version="1.0" standalone="no"?><!DOCTYPE svg PUBLIC "-//W3C//DTD SVG 1.1//EN" "http://www.w3.org/Graphics/SVG/1.1/DTD/svg11.dtd"><svg t="1762319259559" class="icon" viewBox="0 0 1024 1024" version="1.1" xmlns="http://www.w3.org/2000/svg" p-id="6883" xmlns:xlink="http://www.w3.org/1999/xlink" width="200" height="200"><path d="M704.391 998.99H43.31V250.072C43.31 111.969 155.261 0 293.368 0H478.86c92.064 0 225.531 108.122 225.531 248.725V998.99z" fill="#747575" p-id="6884"></path><path d="M440.346 0H307.368C193.261 0 100.779 111.99 100.779 250.072V998.99h546.144V250.072C646.922 111.99 554.43 0 440.346 0z" fill="#AAA9A9" p-id="6885"></path><path d="M412.102 0h-76.478c-65.646 0-118.853 111.99-118.853 250.072V998.99H530.93V250.072C530.93 111.99 477.725 0 412.102 0z" fill="#E9E9E9" p-id="6886"></path><path d="M43.31 228.684h661.082v33.342H43.31zM43.31 719.198h661.082v16.678H43.31zM43.31 282.146h661.082v16.667H43.31z" fill="#EC8F26" p-id="6887"></path><path d="M18.739 973.988h986.523V1024H18.739z" fill="#043342" p-id="6888"></path><path d="M829.928 785.881h-30.541V859.3h30.541c21.865 0 39.66 19.763 39.66 44.041v70.47h66.098v-70.47c0-64.869-47.348-117.46-105.758-117.46zM604.315 785.881c-58.414 0-105.758 52.591-105.758 117.46v70.47h66.098v-70.47c0-24.278 17.787-44.041 39.66-44.041h30.537v-73.419h-30.537z" fill="#C23E34" p-id="6889"></path><path d="M818.977 658.438l-90.514 4.896v-25.379h-22.688v25.323l-90.512-4.84c-6.762 0-12.24 6.09-12.24 13.6 0 7.507 5.479 13.597 12.24 13.597h90.512v55.171h-33.428c-7.344 0-13.354 6.288-13.934 14.271h-3.973c-10.822 0-19.59 9.746-19.59 21.754V867.826c0 12.013 8.768 21.758 19.59 21.758h125.359c10.816 0 19.586-9.745 19.586-21.758V776.831c0-12.008-8.77-21.754-19.586-21.754h-3.977c-0.58-7.983-6.59-14.271-13.934-14.271H728.46v-55.171H818.974c6.76 0 12.238-6.09 12.238-13.597 0.003-7.51-5.475-13.6-12.235-13.6z" fill="#263B50" p-id="6890"></path><path d="M779.801 768.677h-15.268l-0.912-12.499c-0.059-0.877-0.727-1.779-1.73-1.779h-89.543c-1.004 0-1.668 0.902-1.732 1.779l-0.906 12.499h-15.268c-4.055 0-7.348 3.66-7.348 8.154v9.05h140.051v-9.05c0-4.494-3.295-8.154-7.344-8.154z" fill="#EC8F26" p-id="6891"></path></svg>