<?xml version="1.0" standalone="no"?><!DOCTYPE svg PUBLIC "-//W3C//DTD SVG 1.1//EN" "http://www.w3.org/Graphics/SVG/1.1/DTD/svg11.dtd"><svg t="1758453334962" class="icon" viewBox="0 0 1024 1024" version="1.1" xmlns="http://www.w3.org/2000/svg" p-id="38954" xmlns:xlink="http://www.w3.org/1999/xlink" width="200" height="200"><path d="M0 0m358.4 0l307.2 0q358.4 0 358.4 358.4l0 307.2q0 358.4-358.4 358.4l-307.2 0q-358.4 0-358.4-358.4l0-307.2q0-358.4 358.4-358.4Z" fill="#FC621E" p-id="38955"></path><path d="M768 372.95104v5.29408c-0.1024 0.2048-0.28672 0.4096-0.29696 0.62464-0.12288 2.31424-0.13312 4.63872-0.34816 6.94272-0.34816 3.70688-0.60416 7.45472-1.29024 11.10016a120.77056 120.77056 0 0 1-15.8208 41.75872 108.94336 108.94336 0 0 1-19.3536 23.82848c-3.49184 3.16416-7.03488 6.28736-10.752 9.216a112.72192 112.72192 0 0 1-26.89024 15.2064 116.736 116.736 0 0 1-18.87232 5.7856 90.25536 90.25536 0 0 1-18.96448 2.3552c-6.02112 0-12.04224 0.1024-18.06336 0a13.4144 13.4144 0 0 0-10.12736 4.2496q-26.30656 26.42944-52.60288 52.89984Q478.208 648.71424 381.6448 745.19552c-1.86368 1.86368-3.79904 3.64544-5.74464 5.4272a70.656 70.656 0 0 1-15.94368 10.96704 64.33792 64.33792 0 0 1-20.29568 6.656c-1.8432 0.256-3.65568 0.60416-5.48864 0.91136H319.488c-1.50528-0.2048-3.01056-0.34816-4.49536-0.63488a69.79584 69.79584 0 0 1-21.15584-7.55712 70.90176 70.90176 0 0 1-21.13536-18.01216A73.29792 73.29792 0 0 1 260.096 718.848a63.65184 63.65184 0 0 1-2.77504-22.58944 81.60256 81.60256 0 0 1 1.47456-11.3664 67.75808 67.75808 0 0 1 7.72096-19.93728 74.0352 74.0352 0 0 1 11.63264-15.872Q401.152 525.89568 524.288 402.82112c0.44032-0.44032 0.90112-0.8704 1.32096-1.32096a13.60896 13.60896 0 0 0 3.50208-11.03872c-0.39936-4.95616-1.024-9.90208-1.16736-14.85824a76.53376 76.53376 0 0 1 0.60416-10.93632 147.9168 147.9168 0 0 1 2.23232-15.72864 117.62688 117.62688 0 0 1 11.73504-31.24224 121.18016 121.18016 0 0 1 18.6368-25.47712 99.39968 99.39968 0 0 1 11.264-10.30144c4.82304-3.70688 9.984-6.99392 15.11424-10.24a87.2448 87.2448 0 0 1 19.85536-9.2672 149.17632 149.17632 0 0 1 17.5616-4.864 143.98464 143.98464 0 0 1 18.37056-2.2528 98.60096 98.60096 0 0 1 20.38784 1.51552 18.30912 18.30912 0 0 1 10.3936 4.70016 14.9504 14.9504 0 0 1 3.26656 16.64 33.792 33.792 0 0 1-8.12032 11.75552c-6.6048 6.71744-13.312 13.312-19.95776 19.98848l-21.23776 21.25824a52.39808 52.39808 0 0 0-8.3456 10.24 24.576 24.576 0 0 0-3.16416 18.69824 32.768 32.768 0 0 0 9.10336 15.48288c8.83712 8.97024 17.89952 17.73568 26.83904 26.624a34.16064 34.16064 0 0 0 10.06592 6.8608 23.15264 23.15264 0 0 0 13.312 1.8432 30.09536 30.09536 0 0 0 16.66048-8.99072c8.77568-8.69376 17.408-17.50016 26.22464-26.18368 7.168-7.09632 14.336-14.21312 21.76-21.05344a15.60576 15.60576 0 0 1 14.03904-4.4032 13.98784 13.98784 0 0 1 12.1856 11.264 94.14656 94.14656 0 0 1 1.024 9.74848c0.06144 0.58368 0.2048 1.14688 0.3072 1.73056zM325.46816 665.06752a36.31104 36.31104 0 1 0 0.08192 0z" fill="#FFF8FA" p-id="38956"></path><path d="M321.40288 254.91456c2.048 0.4096 4.096 0.69632 6.02112 1.25952a96.84992 96.84992 0 0 1 10.10688 3.26656 59.70944 59.70944 0 0 1 19.61984 13.90592c3.33824 3.38944 6.81984 6.63552 10.24 9.95328s6.7072 6.46144 10.02496 9.728q13.312 13.14816 26.624 26.34752c7.168 7.168 14.21312 14.336 21.2992 21.58592q6.8096 6.93248 13.57824 13.88544l12.91264 13.23008 12.8 13.1072c5.59104 5.70368 11.19232 11.37664 16.76288 17.09056 1.90464 1.95584 3.71712 4.00384 5.64224 6.144l-19.17952 18.74944-6.42048-7.09632a19.3024 19.3024 0 0 0-1.024-1.024l-24.576-24.576q-49.85856-50.01216-99.74784-100.00384a21.32992 21.32992 0 0 0-8.192-5.7856 7.86432 7.86432 0 0 0-9.41056 5.92896 10.24 10.24 0 0 0 3.72736 9.216c4.58752 4.8128 9.3696 9.43104 14.06976 14.1312q54.9888 54.99904 109.99808 109.98784c3.62496 3.61472 7.38304 7.09632 11.18208 10.74176l-23.15264 22.23104c-0.72704-1.024-1.3824-1.92512-2.048-2.82624a28.1088 28.1088 0 0 0-2.304-2.85696q-47.9232-47.9744-95.87712-95.91808c-10.74176-10.752-21.36064-21.61664-32.12288-32.34816a26.14272 26.14272 0 0 0-5.75488-4.22912 7.64928 7.64928 0 0 0-11.264 6.2976 9.216 9.216 0 0 0 2.19136 6.06208 24.50432 24.50432 0 0 0 2.65216 2.99008q64.74752 64.75776 129.50528 129.47456c1.6896 1.69984 3.61472 3.1744 5.376 4.70016-4.17792 4.03456-8.25344 7.99744-12.36992 11.90912-2.34496 2.23232-4.79232 4.36224-7.168 6.59456-0.74752 0.69632-1.18784 0.44032-1.80224-0.1536-3.61472-3.55328-7.31136-7.03488-10.89536-10.61888Q333.1072 416.768 273.84832 357.43744a66.2016 66.2016 0 0 1-17.27488-32.91136c-0.29696-1.37216-0.47104-2.77504-0.69632-4.16768v-12.1856c0.11264-0.72704 0.19456-1.46432 0.33792-2.18112a68.25984 68.25984 0 0 1 4.23936-14.22336 63.488 63.488 0 0 1 10.82368-16.85504 60.84608 60.84608 0 0 1 14.336-11.95008 58.78784 58.78784 0 0 1 18.4832-7.1168c1.66912-0.32768 3.33824-0.62464 5.00736-0.93184z" fill="#FFF8FA" p-id="38957"></path><path d="M566.46656 594.944l28.672-28.672a11.008 11.008 0 0 1 1.36192 1.024c3.87072 3.7376 7.76192 7.45472 11.58144 11.264q22.59968 22.528 45.13792 45.13792c4.63872 4.64896 9.216 9.41056 13.80352 14.09024a24.7808 24.7808 0 0 0 9.94304 6.69696 31.51872 31.51872 0 0 0 6.23616 1.28 44.032 44.032 0 0 1 16.76288 5.65248 49.63328 49.63328 0 0 1 12.81024 10.74176 105.5232 105.5232 0 0 1 7.44448 9.87136c5.77536 8.36608 11.5712 16.71168 17.11104 25.23136 6.20544 9.53344 12.15488 19.23072 18.176 28.8768 2.37568 3.79904 4.7616 7.5776 6.93248 11.48928a16.25088 16.25088 0 0 1 0.18432 18.16576 25.86624 25.86624 0 0 1-10.87488 8.448 12.8512 12.8512 0 0 1-7.80288-0.27648A61.02016 61.02016 0 0 1 730.27584 757.76c-3.40992-1.6896-6.69696-3.64544-9.984-5.57056-4.9152-2.87744-9.85088-5.71392-14.6432-8.77568a369.664 369.664 0 0 1-32.41984-23.0912 165.98016 165.98016 0 0 1-13.056-11.264 49.80736 49.80736 0 0 1-13.64992-24.65792c-0.7168-2.93888-1.3312-5.91872-2.1504-8.83712a17.9712 17.9712 0 0 0-4.90496-7.64928q-35.84-35.91168-71.77216-71.7824c-0.39936-0.39936-0.84992-0.74752-1.24928-1.09568z" fill="#FFF8FA" p-id="38958"></path></svg>