<?xml version="1.0" standalone="no"?><!DOCTYPE svg PUBLIC "-//W3C//DTD SVG 1.1//EN" "http://www.w3.org/Graphics/SVG/1.1/DTD/svg11.dtd"><svg t="1758452969624" class="icon" viewBox="0 0 1024 1024" version="1.1" xmlns="http://www.w3.org/2000/svg" p-id="27234" xmlns:xlink="http://www.w3.org/1999/xlink" width="200" height="200"><path d="M877.740276 439.264807h-62.565717V251.749533a42.922992 42.922992 0 0 0-42.922992-42.741116H542.358931V134.62069a134.225289 134.225289 0 0 0-137.135322-134.589043A138.772216 138.772216 0 0 0 272.817091 140.804511v68.203906H42.924455A42.922992 42.922992 0 0 0 0.001463 251.749533v144.228528A42.922992 42.922992 0 0 0 42.924455 439.264807h24.007775a138.772216 138.772216 0 0 1 140.772864 132.224641A134.225289 134.225289 0 0 1 72.752297 708.261016H42.924455A42.922992 42.922992 0 0 0 0.001463 751.184008v229.892636a42.922992 42.922992 0 0 0 42.922992 42.922992h186.969644A42.741115 42.741115 0 0 0 272.817091 981.076644v-21.279619a138.772216 138.772216 0 0 1 132.406518-140.772864 134.225289 134.225289 0 0 1 137.135322 134.589043v27.46344a42.741115 42.741115 0 0 0 42.741115 42.922992h187.151521a42.922992 42.922992 0 0 0 42.922992-42.922992v-272.815628h68.567661A134.225289 134.225289 0 0 0 1018.51314 571.307571 138.772216 138.772216 0 0 0 877.740276 439.264807z" fill="#333333" p-id="27235"></path></svg>