<?xml version="1.0" standalone="no"?><!DOCTYPE svg PUBLIC "-//W3C//DTD SVG 1.1//EN" "http://www.w3.org/Graphics/SVG/1.1/DTD/svg11.dtd"><svg t="1758454463885" class="icon" viewBox="0 0 1024 1024" version="1.1" xmlns="http://www.w3.org/2000/svg" p-id="39189" xmlns:xlink="http://www.w3.org/1999/xlink" width="200" height="200"><path d="M281.679751 497.006854c12.760125 1.914019 24.882243 0 37.004361-3.828038 21.054206-7.018069 38.280374-21.692212 49.12648-40.832399 12.760125-23.606231 12.122118-52.316511 0-75.922741l-19.140187 35.090343c-6.380062 10.846106-15.31215 19.140187-27.434268 22.968224-12.122118 3.828037-24.244237 3.190031-35.728349-2.552025-11.484112-5.10405-19.140187-14.674143-22.968224-26.158255-3.828037-11.484112-2.552025-23.606231 3.190031-34.452337l18.502181-33.81433c-5.10405 1.276012-10.2081 1.914019-15.31215 3.828037-21.054206 7.018069-38.280374 21.692212-49.12648 40.832399-16.588162 29.348287-11.484112 66.352648 12.122119 91.234891l5.10405 5.742056-72.732711 135.257321c-2.552025 4.466044-3.190031 10.2081-1.276012 15.31215s5.742056 8.932087 10.2081 11.484112c9.570093 5.10405 22.968224 0.638006 28.072274-8.932088l73.370716-135.895327 7.018069 0.638007z m457.450467 182.469782h105.271028V574.205607h-105.271028V679.476636z m0 195.867912h105.271028v-105.271028h-105.271028v105.271028zM892.88972 105.271028h-156.311527c-11.484112 0-19.778193 8.932087-19.778193 20.416199H618.54704c0-8.932087 0-60.610592-0.638006-63.162616-3.828037-35.090343-33.81433-62.524611-70.180685-62.524611h-53.592523c-37.004361 0-66.990654 28.072274-70.180686 63.800623v61.886604h-89.320872c0-11.484112-8.932087-20.416199-19.778193-20.416199H158.544548C103.676012 105.271028 60.291589 151.845483 60.291589 206.714019v712.652959c0 54.868536 43.384424 98.890966 98.252959 98.890966h734.983178c54.868536 0 98.25296-44.660436 98.252959-98.890966V206.714019c-0.638006-54.868536-44.02243-101.442991-98.890965-101.442991zM520.932087 33.176324c17.864174 0 33.81433 15.31215 33.81433 33.81433s-15.950156 35.728349-35.090342 35.728349-32.538318-16.588162-32.538318-35.728349c0-18.502181 14.674143-33.81433 33.81433-33.81433zM325.064174 167.795639h98.890966v-42.108412H620.461059v41.470405h94.424922c51.040498 0 51.040498 35.728349 0 35.728349H325.064174c-51.678505 0-51.678505-35.090343 0-35.090342z m-129.515264 495.092835c-10.846106 3.828037-22.330218 2.552025-32.538318-2.552025s-17.226168-13.398131-21.054206-23.606231c-3.190031-10.2081-1.914019-21.692212 3.190031-31.262305l65.076636-123.135203c-25.520249-30.624299-30.624299-74.008723-10.846106-110.375078 12.760125-24.244237 34.452336-42.108411 61.248598-51.040498 13.398131-4.466044 27.434268-5.742056 40.832399-5.10405l15.950156 1.276013-34.452337 64.438629c-3.190031 5.742056-3.828037 12.122118-1.914018 18.502181s6.380062 11.484112 12.122118 14.674143c6.380062 3.190031 13.398131 3.190031 19.778193 1.276012s12.122118-6.380062 15.31215-12.122118l34.452336-64.438629 10.2081 11.484112c27.434268 31.262305 31.900312 75.284735 12.122118 112.289096-12.760125 24.244237-34.452336 42.108411-61.248598 51.040499-12.122118 3.828037-25.520249 5.742056-38.280374 5.10405l-65.714642 123.135202c-4.466044 9.570093-13.398131 16.588162-24.244236 20.4162zM605.786916 826.218069H214.05109v-28.072275h391.735826v28.072275z m0-182.469782H347.394393V615.676012h258.392523v28.072275z m0-174.813708H445.647352v-28.072274h160.139564V468.934579z m259.668536 396.839876c0 14.674143-15.950156 28.71028-30.624299 28.71028H748.062305c-14.674143 0-29.348287-14.036137-29.348286-28.71028v-88.04486c0-14.674143 14.674143-28.072274 29.348286-28.072274h86.768848c14.674143 0 30.624299 13.398131 30.624299 28.072274v88.04486z m0-195.229907c0 14.674143-15.950156 28.71028-30.624299 28.710281H748.062305c-14.674143 0-28.71028-14.036137-28.71028-28.710281V581.861682c0-14.674143 14.036137-28.072274 28.71028-28.072274h86.768848c14.674143 0 30.624299 13.398131 30.624299 28.072274v88.682866z m11.484112-260.944548l-67.628661 89.320872c-4.466044 6.380062-12.122118 9.570093-19.140186 9.570094h-0.638007c-7.018069 0-14.036137-2.552025-19.140187-7.656075l-47.212461-48.488474c-10.2081-10.2081-12.122118-13.398131-1.276012-22.968224 10.2081-9.570093 29.986293 18.502181 39.556386 29.348287l26.158256 26.796261 52.31651-62.52461c9.570093-11.484112 28.072274-45.936449 43.384424-38.91838 11.484112 7.018069-6.380062 24.882243-6.380062 25.520249z" fill="#ED6F1A" p-id="39190"></path></svg>