<?xml version="1.0" standalone="no"?><!DOCTYPE svg PUBLIC "-//W3C//DTD SVG 1.1//EN" "http://www.w3.org/Graphics/SVG/1.1/DTD/svg11.dtd"><svg t="1758453831920" class="icon" viewBox="0 0 1024 1024" version="1.1" xmlns="http://www.w3.org/2000/svg" p-id="19665" xmlns:xlink="http://www.w3.org/1999/xlink" width="200" height="200"><path d="M173.44 234.88V832a131.84 131.84 0 0 0 135.04 128h407.04a131.84 131.84 0 0 0 135.04-128V234.88z m180.48 590.72a26.24 26.24 0 0 1-22.4 28.16h-23.04a26.24 26.24 0 0 1-22.4-28.16V347.52A25.6 25.6 0 0 1 307.2 320h25.6a25.6 25.6 0 0 1 21.12 27.52v478.08z m203.52 0a26.24 26.24 0 0 1-23.04 28.16h-44.8a26.24 26.24 0 0 1-23.04-28.16V347.52A25.6 25.6 0 0 1 488.32 320h47.36a25.6 25.6 0 0 1 21.76 27.52v478.08z m180.48-478.08v478.08a26.24 26.24 0 0 1-22.4 28.16h-23.04a26.24 26.24 0 0 1-22.4-28.16V347.52A25.6 25.6 0 0 1 691.2 320h25.6a25.6 25.6 0 0 1 21.12 27.52zM850.56 64H173.44a44.16 44.16 0 0 0-45.44 42.88V128a44.16 44.16 0 0 0 45.44 42.88h677.12A44.16 44.16 0 0 0 896 128v-21.12a44.16 44.16 0 0 0-45.44-42.88z m0 0" fill="#F43737" p-id="19666"></path></svg>