<?xml version="1.0" standalone="no"?><!DOCTYPE svg PUBLIC "-//W3C//DTD SVG 1.1//EN" "http://www.w3.org/Graphics/SVG/1.1/DTD/svg11.dtd"><svg t="1762319232097" class="icon" viewBox="0 0 1024 1024" version="1.1" xmlns="http://www.w3.org/2000/svg" p-id="5653" xmlns:xlink="http://www.w3.org/1999/xlink" width="200" height="200"><path d="M512 0C229.205 0 0 229.205 0 512c0 282.76 229.205 512 512 512 282.76 0 512-229.24 512-512C1024 229.205 794.76 0 512 0zM252.04 603.238a276.65 276.65 0 0 0 42.77 78.2 32.973 32.973 0 0 1-51.883 40.653A340.378 340.378 0 0 1 170.667 512a340.173 340.173 0 0 1 100.01-241.39A339.797 339.797 0 0 1 512 170.666a32.905 32.905 0 0 1 25.737 53.52L442.88 342.802a32.631 32.631 0 0 1-25.77 12.356 33.007 33.007 0 0 1-32.769-29.252 33.143 33.143 0 0 1 6.998-24.235l43.417-54.135a274.057 274.057 0 0 0-117.487 69.734A273.203 273.203 0 0 0 236.612 512c0 31.334 5.154 61.986 15.429 91.238z m123.836 82.193l-37.478-37.444a17.613 17.613 0 0 1-6.485-12.595c-0.205-4.813 1.433-8.294 4.949-10.342l148.514-148.515a96.7 96.7 0 0 1-5.018-58.504 105.984 105.984 0 0 1 29.423-53.999 103.22 103.22 0 0 1 58.13-29.833 105.165 105.165 0 0 1 62.839 8.431l-70.417 70.417 49.015 49.016 71.987-70.383c10.172 19.422 13.244 40.277 9.114 62.771a108.169 108.169 0 0 1-30.55 58.095 104.96 104.96 0 0 1-53.998 29.457 96.939 96.939 0 0 1-58.641-4.983L398.848 685.397c-7.748 7.851-15.292 7.851-22.972 0.034z m450.697-40.516a341.914 341.914 0 0 1-73.182 108.442 341.436 341.436 0 0 1-108.51 73.25A339.968 339.968 0 0 1 512 853.333a32.973 32.973 0 0 1-25.702-53.452l94.959-118.682a32.358 32.358 0 0 1 25.668-12.459 33.178 33.178 0 0 1 32.768 29.355 33.075 33.075 0 0 1-7.066 24.337l-43.28 54.135a274.773 274.773 0 0 0 117.384-69.905 273.17 273.17 0 0 0 80.588-194.73c0-31.335-5.154-61.986-15.428-91.136a272.043 272.043 0 0 0-42.803-78.268 33.11 33.11 0 0 1 25.907-53.248c10.274 0 19.73 4.676 26.01 12.698A339.934 339.934 0 0 1 853.333 512a339.217 339.217 0 0 1-26.76 132.915z" fill="#0075C1" p-id="5654"></path></svg>