<?xml version="1.0" standalone="no"?><!DOCTYPE svg PUBLIC "-//W3C//DTD SVG 1.1//EN" "http://www.w3.org/Graphics/SVG/1.1/DTD/svg11.dtd"><svg t="1762319177257" class="icon" viewBox="0 0 1024 1024" version="1.1" xmlns="http://www.w3.org/2000/svg" p-id="3540" xmlns:xlink="http://www.w3.org/1999/xlink" width="200" height="200"><path d="M821.323371 538.415469a89.368022 89.368022 0 0 1 62.320032-85.347375 351.258362 351.258362 0 0 0-40.571985-98.3231 89.916292 89.916292 0 0 1-120.98493-120.98493 352.537659 352.537659 0 0 0-98.140344-40.571986 89.733536 89.733536 0 0 1-170.877507 0 351.258362 351.258362 0 0 0-98.3231 40.571986 89.733536 89.733536 0 0 1-120.98493 120.98493 351.258362 351.258362 0 0 0-40.571986 98.3231 89.733536 89.733536 0 0 1 0 170.877507 352.537659 352.537659 0 0 0 40.571986 98.140344 89.733536 89.733536 0 0 1 120.98493 120.98493 351.258362 351.258362 0 0 0 98.3231 40.571986 89.733536 89.733536 0 0 1 170.877507 0 352.537659 352.537659 0 0 0 98.140344-40.571986 89.916292 89.916292 0 0 1 120.98493-120.98493 352.537659 352.537659 0 0 0 40.571985-98.140344 89.733536 89.733536 0 0 1-62.320032-85.530132z m-282.907359 103.074775a103.074774 103.074774 0 1 1 103.074775-103.074775 103.074774 103.074774 0 0 1-103.074775 103.074775z" fill="#68C0A4" p-id="3541"></path><path d="M538.416012 52.830939A485.584531 485.584531 0 1 0 1024.1833 538.415469 485.401774 485.401774 0 0 0 538.416012 52.830939z m324.210372 703.064994a18.275669 18.275669 0 0 1-11.879185 7.493024 16.996372 16.996372 0 0 1-13.523995-3.83789 54.827008 54.827008 0 0 0-77.671594 77.671594 16.996372 16.996372 0 0 1 3.83789 13.523995 18.275669 18.275669 0 0 1-7.493024 11.879185 385.251107 385.251107 0 0 1-142.00195 58.664898 18.275669 18.275669 0 0 1-13.706752-3.106864 17.179129 17.179129 0 0 1-6.944754-12.061941 54.827008 54.827008 0 0 0-109.654015 0 17.179129 17.179129 0 0 1-6.944755 12.061941 16.082589 16.082589 0 0 1-10.234374 3.472378 10.599888 10.599888 0 0 1-3.472377 0 385.251107 385.251107 0 0 1-142.00195-58.664899 18.275669 18.275669 0 0 1-7.493024-11.879185 16.996372 16.996372 0 0 1 3.83789-13.523995 54.827008 54.827008 0 0 0-77.671594-77.671594 16.996372 16.996372 0 0 1-13.523995 3.837891 18.275669 18.275669 0 0 1-11.879185-7.493025 388.35797 388.35797 0 0 1-58.664898-142.001949 18.275669 18.275669 0 0 1 3.106863-13.706752 17.179129 17.179129 0 0 1 12.244699-6.944755 54.827008 54.827008 0 0 0 0-109.654015 18.275669 18.275669 0 0 1-15.351562-20.651506 388.35797 388.35797 0 0 1 58.664898-142.00195 18.275669 18.275669 0 0 1 11.879185-7.493024 16.996372 16.996372 0 0 1 13.523995 3.837891 54.827008 54.827008 0 0 0 77.671594-77.671594 16.996372 16.996372 0 0 1-3.83789-13.523996 18.275669 18.275669 0 0 1 7.493024-11.879185 385.251107 385.251107 0 0 1 142.00195-58.664898 18.275669 18.275669 0 0 1 20.651506 15.168806 54.827008 54.827008 0 0 0 109.654015 0 17.179129 17.179129 0 0 1 6.944754-12.061942 18.275669 18.275669 0 0 1 13.706752-3.106864 388.35797 388.35797 0 0 1 142.00195 58.664898 18.275669 18.275669 0 0 1 7.493024 11.879185 16.996372 16.996372 0 0 1-3.83789 13.523996 54.827008 54.827008 0 0 0 77.671594 77.671594 17.179129 17.179129 0 0 1 13.523995-3.837891 18.275669 18.275669 0 0 1 11.879185 7.493024 385.251107 385.251107 0 0 1 58.664898 142.00195 16.630859 16.630859 0 0 1-3.106864 13.706752 17.179129 17.179129 0 0 1-12.061941 6.944754 54.827008 54.827008 0 0 0 0 109.654015 17.179129 17.179129 0 0 1 12.061941 6.944755 16.813616 16.813616 0 0 1 3.106864 13.706752 385.251107 385.251107 0 0 1-58.664898 141.636436z" fill="#68C0A4" p-id="3542"></path><path d="M503.692241 1005.907087A502.946416 502.946416 0 1 1 1005.90763 503.691698 503.494686 503.494686 0 0 1 503.692241 1005.907087z m0-971.169061a468.405401 468.405401 0 1 0 468.405401 468.953672A468.770915 468.770915 0 0 0 503.692241 35.469053z" fill="#1C1D1D" p-id="3543"></path><path d="M503.692241 624.128358a120.43666 120.43666 0 1 1 120.43666-120.43666 120.43666 120.43666 0 0 1-120.43666 120.43666z m0-205.966792a85.712889 85.712889 0 1 0 85.712888 85.530132 85.712889 85.712889 0 0 0-85.712888-85.530132z" fill="#1C1D1D" p-id="3544"></path><path d="M503.692241 894.059992a390.368294 390.368294 0 1 1 390.368294-390.368294 390.733807 390.733807 0 0 1-390.368294 390.368294z m0-746.012817A355.644523 355.644523 0 1 0 859.702277 503.691698 356.010036 356.010036 0 0 0 503.692241 148.047175z" fill="#1C1D1D" p-id="3545"></path><path d="M575.881134 886.932481a18.275669 18.275669 0 0 1-10.417131-3.28962 18.275669 18.275669 0 0 1-6.944755-12.244699 54.827008 54.827008 0 0 0-109.654015 0 16.996372 16.996372 0 0 1-6.944754 12.244699 17.179129 17.179129 0 0 1-13.706752 3.106863 386.71316 386.71316 0 0 1-142.00195-58.847654 18.275669 18.275669 0 0 1-7.493024-11.879185 18.275669 18.275669 0 0 1 3.837891-13.523996 54.827008 54.827008 0 0 0-77.671594-77.488837 16.996372 16.996372 0 0 1-13.523996 3.655134 18.275669 18.275669 0 0 1-11.879185-7.493025 388.35797 388.35797 0 0 1-58.664898-142.001949 18.275669 18.275669 0 0 1 3.106864-13.706752 18.275669 18.275669 0 0 1 12.244698-6.944754 54.827008 54.827008 0 0 0 0-109.654016 16.630859 16.630859 0 0 1-12.244698-6.944754 17.179129 17.179129 0 0 1-3.106864-13.706752 389.637267 389.637267 0 0 1 58.664898-142.001949 18.275669 18.275669 0 0 1 11.879185-7.493025 16.996372 16.996372 0 0 1 13.523996 3.837891 54.827008 54.827008 0 0 0 77.671594-77.671594 16.996372 16.996372 0 0 1-3.837891-13.523996 18.275669 18.275669 0 0 1 7.493024-11.879184 389.637267 389.637267 0 0 1 142.00195-58.664899 17.179129 17.179129 0 0 1 13.706752 3.106864 16.630859 16.630859 0 0 1 6.944754 12.244699 54.827008 54.827008 0 0 0 109.654015 0 18.275669 18.275669 0 0 1 6.944755-12.244699 18.275669 18.275669 0 0 1 13.706752-3.106864 388.35797 388.35797 0 0 1 142.001949 58.664899 18.275669 18.275669 0 0 1 7.493025 11.879184 16.996372 16.996372 0 0 1-3.655134 13.523996 54.827008 54.827008 0 0 0 77.488837 77.671594 17.179129 17.179129 0 0 1 13.523995-3.837891 18.275669 18.275669 0 0 1 11.879185 7.493025 386.71316 386.71316 0 0 1 58.847655 142.001949 17.179129 17.179129 0 0 1-3.106864 13.706752 16.996372 16.996372 0 0 1-12.244698 6.944754 54.827008 54.827008 0 0 0 0 109.654016 18.275669 18.275669 0 0 1 12.244698 6.944754 18.275669 18.275669 0 0 1 3.106864 13.706752 385.433863 385.433863 0 0 1-58.847655 142.001949 18.275669 18.275669 0 0 1-11.879185 7.493025 18.275669 18.275669 0 0 1-13.523995-3.655134 54.827008 54.827008 0 0 0-77.488837 77.488837 18.275669 18.275669 0 0 1 3.655134 13.523996 18.275669 18.275669 0 0 1-7.493025 11.879185 385.433863 385.433863 0 0 1-142.001949 58.847654z m-255.859369-78.585377a351.258362 351.258362 0 0 0 98.323101 40.571985 89.733536 89.733536 0 0 1 170.877507 0 352.537659 352.537659 0 0 0 98.140343-40.571985 89.916292 89.916292 0 0 1 120.98493-120.984931 352.537659 352.537659 0 0 0 40.571986-98.140343 89.733536 89.733536 0 0 1 0-170.877507 351.258362 351.258362 0 0 0-40.571986-98.3231 89.733536 89.733536 0 0 1-120.98493-120.802174 352.903172 352.903172 0 0 0-98.140343-40.754742 89.733536 89.733536 0 0 1-170.877507 0 347.237715 347.237715 0 0 0-98.323101 40.754742 89.733536 89.733536 0 0 1-120.802173 120.802174 351.806632 351.806632 0 0 0-40.754742 98.3231 89.733536 89.733536 0 0 1 0 170.877507 352.903172 352.903172 0 0 0 40.754742 98.140343 89.733536 89.733536 0 0 1 120.802173 120.984931z" fill="#1C1D1D" p-id="3546"></path></svg>