<?xml version="1.0" standalone="no"?><!DOCTYPE svg PUBLIC "-//W3C//DTD SVG 1.1//EN" "http://www.w3.org/Graphics/SVG/1.1/DTD/svg11.dtd"><svg t="1758453675354" class="icon" viewBox="0 0 1024 1024" version="1.1" xmlns="http://www.w3.org/2000/svg" p-id="10046" xmlns:xlink="http://www.w3.org/1999/xlink" width="200" height="200"><path d="M680.6528 489.9328H340.608c-12.7616 0-25.5104-12.7488-25.5104-29.7472v-93.5168c0-16.9984 8.4992-29.7472 25.5104-29.7472h340.032c12.7488 0 25.4976 12.7488 25.4976 29.7472v97.7664c0 8.4992-4.2496 16.9984-8.4992 21.248-8.4992 4.2496-12.7488 4.2496-16.9984 4.2496z m-331.5328-119.0144l-4.2496 85.0176s0 4.2496 4.2496 4.2496H667.904V375.168s0-4.2624-4.2624-4.2624H349.12z" fill="#FFFFFF" p-id="10047"></path><path d="M612.6464 400.6784h33.9968v29.7472h-33.9968v-29.7472z m68.0064 289.024H340.608c-12.7616 0-25.5104-12.7488-25.5104-29.7472V562.176c0-16.9984 8.4992-29.7472 25.5104-29.7472h340.032c12.7488 0 25.4976 12.7488 25.4976 29.7472v97.7664c0 8.4992-4.2496 16.9984-8.4992 21.248-8.4992 4.2496-12.7488 8.4992-16.9984 8.4992z m-331.5328-119.0016l-4.2496 84.992s0 4.2624 4.2496 4.2624H667.904v-89.2544s0-4.2624-4.2624-4.2624H349.12v4.2624z" fill="#FFFFFF" p-id="10048"></path><path d="M612.6464 596.1984h33.9968v29.7472h-33.9968z" fill="#FFFFFF" p-id="10049"></path><path d="M510.6304 829.9648c-174.2592 0-318.784-140.2624-318.784-318.7712 0-174.272 140.2624-318.784 318.784-318.784 174.272 0 318.784 140.2624 318.784 318.784-4.2496 178.5088-144.512 318.7712-318.784 318.7712z" fill="#FFFFFF" opacity=".295" p-id="10050"></path><path d="M0 0m512 0l0 0q512 0 512 512l0 0q0 512-512 512l0 0q-512 0-512-512l0 0q0-512 512-512Z" fill="#F7B500" p-id="10051"></path><path d="M721.7024 896.7168H300.0064a110.2848 110.2848 0 0 1-107.1104-112.9984V444.736a110.2848 110.2848 0 0 1 107.1104-112.9984h61.696v-56.4864a22.6048 22.6048 0 0 1 45.1968 0v79.0912a22.6048 22.6048 0 0 1-22.592 22.592h-84.3008a65.3056 65.3056 0 0 0-61.9136 67.8016v338.9824a65.3056 65.3056 0 0 0 61.9136 67.8016h421.696a65.3056 65.3056 0 0 0 61.9264-67.8016V444.736a65.3056 65.3056 0 0 0-61.9264-67.8016h-84.288a22.6048 22.6048 0 0 1-22.6048-22.592v-79.104a22.6048 22.6048 0 0 1 45.1968 0v56.4992h61.696a110.2848 110.2848 0 0 1 107.1232 112.9984v338.9824a110.2848 110.2848 0 0 1-107.1232 112.9984z" fill="#FFFFFF" p-id="10052"></path><path d="M680.3456 286.5408H341.376a79.104 79.104 0 0 1 0-158.1824h338.9824a79.104 79.104 0 0 1 0 158.1824zM341.376 173.568a33.8944 33.8944 0 0 0 0 67.7888h338.9824a33.8944 33.8944 0 0 0 0-67.7888H341.376z" fill="#FFFFFF" p-id="10053"></path><path d="M511.9232 403.4176c109.44 0 198.1696 88.6784 198.1696 198.1056 0 109.4528-88.704 198.208-198.1184 198.208-109.44 0-198.1568-88.7296-198.1568-198.1568 0-109.44 88.6784-198.1568 198.1056-198.1568z m-0.0128 38.3616a158.6688 158.6688 0 0 0-112.9472 46.784 159.7184 159.7184 0 1 0 116.8896-46.7328l-3.9424-0.0512z" fill="#FFFFFF" p-id="10054"></path><path d="M511.9232 663.8336c9.984 0 18.176 7.616 19.0976 17.344l0.0896 1.8432v87.5264a19.1872 19.1872 0 0 1-38.272 1.8432l-0.1024-1.8432V683.008c0-10.5984 8.5888-19.1872 19.2-19.1872z m-80.2816-80.448a19.1872 19.1872 0 0 1 1.664 38.2208l-1.8304 0.128h-87.7056a19.1872 19.1872 0 0 1-1.664-38.2208l1.8432-0.128h87.6928z m248.448 0a19.1872 19.1872 0 0 1 1.664 38.2208l-1.856 0.128h-87.6928a19.1872 19.1872 0 0 1-1.664-38.2208l1.8432-0.128h87.6928zM511.9104 415.3856c9.984 0 18.176 7.6032 19.0976 17.3312l0.0896 1.856v87.5008a19.1872 19.1872 0 0 1-38.272 1.8816l-0.1024-1.856v-87.5264c0-10.5984 8.5888-19.2 19.2-19.2z" fill="#FFFFFF" p-id="10055"></path><path d="M511.9232 409.8176c-105.8944 0-191.7056 85.8624-191.7056 191.744 0 105.9072 85.8624 191.7696 191.744 191.7696 105.9072 0 191.7312-85.9136 191.7312-191.808s-85.8752-191.7056-191.7696-191.7056z" fill="#FFFFFF" opacity=".297" p-id="10056"></path></svg>