<?xml version="1.0" standalone="no"?><!DOCTYPE svg PUBLIC "-//W3C//DTD SVG 1.1//EN" "http://www.w3.org/Graphics/SVG/1.1/DTD/svg11.dtd"><svg t="1758454603375" class="icon" viewBox="0 0 1024 1024" version="1.1" xmlns="http://www.w3.org/2000/svg" p-id="46156" xmlns:xlink="http://www.w3.org/1999/xlink" width="200" height="200"><path d="M939.604396 962.10989V306.637363c0-54.857143-67.516484-82.989011-106.901099-43.604396L430.417582 665.318681c-19.692308 19.692308-52.043956 19.692308-71.736263 0-19.692308-19.692308-19.692308-52.043956 0-71.736263l402.285714-402.285715C800.351648 151.912088 773.626374 84.395604 717.362637 84.395604H61.89011C28.131868 84.395604 0 112.527473 0 146.285714v814.417583c0 33.758242 28.131868 61.89011 61.89011 61.89011h814.417582c35.164835 1.406593 63.296703-26.725275 63.296704-60.483517z" fill="#F39800" p-id="46157"></path><path d="M1016.967033 42.197802c9.846154-9.846154 9.846154-25.318681 0-35.164835s-25.318681-9.846154-35.164835 0L389.626374 599.208791c-4.21978 4.21978-5.626374 8.43956-7.032967 14.065934v29.538462h29.538461c5.626374-1.406593 9.846154-2.813187 14.065934-7.032967L1016.967033 42.197802z" fill="#F39800" p-id="46158"></path></svg>