<?xml version="1.0" standalone="no"?><!DOCTYPE svg PUBLIC "-//W3C//DTD SVG 1.1//EN" "http://www.w3.org/Graphics/SVG/1.1/DTD/svg11.dtd"><svg t="1758453642031" class="icon" viewBox="0 0 1024 1024" version="1.1" xmlns="http://www.w3.org/2000/svg" p-id="6209" xmlns:xlink="http://www.w3.org/1999/xlink" width="200" height="200"><path d="M0 512a512 512 0 1 0 1024 0 512 512 0 1 0-1024 0Z" fill="#FFA23A" p-id="6210"></path><path d="M710.6048 769.1776h-19.456v-103.936a175.36 175.36 0 0 0-95.3856-155.7504A175.2576 175.2576 0 0 0 691.2 353.6384V249.7536h19.456a19.456 19.456 0 0 0 0-38.912H321.0752a19.456 19.456 0 0 0 0 38.912h19.456v103.936c0 67.2768 38.2464 126.3616 95.3344 155.8016a175.36 175.36 0 0 0-95.3344 155.8016v103.8848h-19.456a19.456 19.456 0 0 0 0 38.912h389.5296a19.456 19.456 0 0 0 0-38.912z" fill="#FFFFFF" p-id="6211"></path><path d="M380.1088 365.4144c-0.9728-11.1104-0.6144-6.4-0.6144-115.6608h272.6912c0 109.2608 0.3584 104.5504-0.6144 115.6608H380.1088zM652.1856 747.0592c-107.4688-89.5488-103.5264-87.9104-116.8896-92.672v-21.5552a19.456 19.456 0 0 0-38.912 0v21.6064c-13.2096 4.608-9.1136 2.7648-116.8896 92.6208v-81.7664c0-68.5568 50.8928-125.2864 116.8384-134.8096v24.4224a19.456 19.456 0 0 0 38.9632 0v-24.4224a136.448 136.448 0 0 1 116.8896 134.8096v81.7664z" fill="#FFA23A" p-id="6212"></path></svg>