<?xml version="1.0" standalone="no"?><!DOCTYPE svg PUBLIC "-//W3C//DTD SVG 1.1//EN" "http://www.w3.org/Graphics/SVG/1.1/DTD/svg11.dtd"><svg t="1762243765054" class="icon" viewBox="0 0 1024 1024" version="1.1" xmlns="http://www.w3.org/2000/svg" p-id="21695" xmlns:xlink="http://www.w3.org/1999/xlink" width="200" height="200"><path d="M512 1.59288889C230.05866667 1.59288889 1.59288889 230.05866667 1.59288889 512S230.05866667 1022.40711111 512 1022.40711111 1022.40711111 793.94133333 1022.40711111 512 793.94133333 1.59288889 512 1.59288889z m-33.792 369.664c18.20444445-23.43822222 31.97155555-44.48711111 41.30133333-62.91911111 9.32977778-18.432 16.04266667-32.99555555 20.13866667-43.69066667 4.096-10.69511111 8.30577778-19.91111111 12.85688889-27.648 4.43733333-7.73688889 13.08444445-11.60533333 25.94133333-11.60533333 16.27022222 0.34133333 27.87555555 5.12 34.70222223 14.22222222s9.44355555 15.47377778 7.85066666 18.88711111l-2.95822222 8.76088889c18.20444445 29.92355555 34.36088889 51.99644445 48.35555556 66.33244445 13.99466667 14.336 27.98933333 26.73777778 42.21155555 37.3191111 14.22222222 10.46755555 27.07911111 18.77333333 38.68444445 24.80355556 11.60533333 6.03022222 20.70755555 11.60533333 27.0791111 16.83911111 6.37155555 5.23377778 9.55733333 12.85688889 9.55733334 22.98311111-0.34133333 11.264-4.66488889 19.456-12.85688889 24.80355556-8.192 5.23377778-15.36 7.85066667-21.504 7.85066666-17.06666667 0.79644445-42.55288889-12.85688889-76.57244445-40.73244444-34.01955555-27.98933333-63.71555555-59.96088889-89.42933333-96.02844444-59.392 88.86044445-96.93866667 137.10222222-112.64 144.384-15.70133333 7.39555555-28.78577778 7.39555555-39.25333333 0s-15.58755555-16.27022222-15.13244444-26.73777778c0-6.59911111 1.59288889-11.83288889 4.66488888-15.70133334 3.072-3.86844445 8.87466667-9.32977778 17.18044445-16.27022222 8.30577778-7.168 21.61777778-22.41422222 39.82222222-45.85244444z m50.63111111 135.39555556c-10.12622222 0-18.31822222-3.18577778-24.80355556-9.55733334-6.37155555-6.37155555-9.44355555-13.53955555-8.98844444-21.27644444 0-9.67111111 3.75466667-17.408 11.37777778-22.98311112 7.62311111-5.57511111 15.01866667-8.41955555 22.41422222-8.41955555h138.58133334c8.192 0 16.15644445 2.84444445 23.89333333 8.41955555 7.73688889 5.68888889 11.71911111 12.97066667 11.94666667 22.0728889 0.22755555 9.10222222-3.52711111 16.72533333-11.03644445 22.75555555-7.62311111 6.03022222-15.58755555 8.98844445-24.12088889 8.98844445H528.83911111z m108.88533334 112.29866666c-1.13777778 10.92266667-5.91644445 18.88711111-14.22222223 24.12088889-8.30577778 5.23377778-16.27022222 7.05422222-23.552 5.57511111-8.192-1.13777778-14.22222222-4.32355555-18.31822222-9.55733333-4.096-5.23377778-7.168-13.88088889-9.32977778-25.94133333-2.16177778-12.06044445-5.00622222-22.86933333-8.76088889-32.65422223-3.64088889-9.67111111-6.25777778-17.408-7.62311111-22.98311111-1.36533333-5.57511111-0.11377778-12.85688889 3.75466667-21.84533333 3.86844445-8.87466667 11.264-13.53955555 22.07288889-13.99466667 10.80888889-0.34133333 18.65955555 1.024 23.32444444 4.096 6.59911111 5.00622222 11.94666667 13.42577778 16.04266667 25.03111111 4.096 11.60533333 7.96444445 24.46222222 11.60533333 38.45688889 3.75466667 13.99466667 5.46133333 23.89333333 5.00622223 29.696z m-94.89066667 26.85155556c-0.79644445 11.264-5.34755555 19.456-13.65333333 24.46222222-8.30577778 5.00622222-16.27022222 6.82666667-23.552 5.23377778-8.192-1.13777778-14.22222222-4.32355555-18.31822223-9.32977778-4.096-5.00622222-7.168-13.65333333-9.32977777-25.94133334-2.16177778-12.17422222-5.00622222-23.21066667-8.7608889-32.88177777-3.64088889-9.67111111-6.25777778-17.52177778-7.6231111-23.32444445-1.36533333-5.80266667-0.11377778-13.312 3.75466666-22.41422222s13.42577778-13.88088889 28.55822222-14.22222222c9.67111111 0 17.86311111 4.43733333 24.46222222 13.42577778 6.59911111 8.98844445 12.288 23.552 17.18044445 43.91822222 4.89244445 20.36622222 7.28177778 34.01955555 7.28177778 41.07377778z m-132.20977778-74.52444445c-3.072-4.32355555-6.25777778-9.67111111-9.32977778-16.27022222-3.072-6.59911111-8.98844445-17.29422222-17.52177777-31.97155555v228.8071111c0 8.53333333-3.072 16.15644445-9.32977778 22.75555556-6.25777778 6.59911111-14.90488889 9.55733333-26.16888889 8.76088889-11.264-0.34133333-19.456-3.86844445-24.46222223-10.46755555-5.00622222-6.59911111-7.62311111-13.53955555-7.6231111-20.93511112v-172.94222222c-5.46133333 8.98844445-9.55733333 15.70133333-12.51555556 20.36622222-2.95822222 4.66488889-6.48533333 9.67111111-10.80888889 15.13244445-4.32355555 5.46133333-10.35377778 10.58133333-18.31822222 15.47377777-7.96444445 4.89244445-15.58755555 7.39555555-22.98311111 7.62311112-7.39555555 0.22755555-14.22222222-2.73066667-20.36622222-8.76088889-6.25777778-6.03022222-9.32977778-13.65333333-9.32977778-22.98311111s1.93422222-16.72533333 5.80266666-22.07288889c3.86844445-5.46133333 11.71911111-14.90488889 23.552-28.21688889 11.83288889-13.42577778 23.43822222-32.19911111 34.92977778-56.43377778 11.49155555-24.23466667 18.09066667-41.87022222 20.13866667-52.67911111l5.80266667-29.12711111h-55.296c-7.73688889 0-14.67733333-3.29955555-20.70755556-9.89866667-6.03022222-6.59911111-8.64711111-14.79111111-7.85066667-24.46222222 0.34133333-9.67111111 3.52711111-16.83911111 9.32977778-21.504 5.80266667-4.66488889 12.17422222-6.94044445 19.22844445-6.94044445H316.30222222v-86.12977777c0-8.53333333 3.072-15.92888889 9.32977778-22.07288889 6.25777778-6.25777778 14.56355555-9.10222222 25.03111111-8.76088889 8.192 0.34133333 15.70133333 3.52711111 22.75555556 9.32977778 6.94044445 5.80266667 10.46755555 12.97066667 10.46755555 21.504v86.12977777H413.01333333c6.94044445 0 13.53955555 2.27555555 19.456 6.94044445 6.03022222 4.66488889 9.44355555 12.06044445 10.24 22.07288889 0.79644445 10.12622222-2.27555555 18.20444445-9.32977778 24.46222222-6.94044445 6.25777778-13.76711111 9.32977778-20.36622222 9.32977778h-29.12711111v67.01511111c1.13777778-8.87466667 6.82666667-13.53955555 16.83911111-13.99466667 3.86844445 0 7.85066667 1.25155555 11.94666667 3.75466667 4.096 2.50311111 10.46755555 10.24 19.22844445 23.32444445 8.76088889 12.97066667 15.13244445 24.34844445 19.22844444 34.01955555 4.096 9.67111111 6.144 16.83911111 6.144 21.504-0.34133333 5.80266667-3.18577778 12.06044445-8.41955556 18.65955555-5.23377778 6.59911111-12.74311111 9.10222222-22.41422222 7.62311112-7.39555555-1.25155555-12.62933333-3.75466667-15.81511111-7.96444445z m368.07111111 185.45777778c-6.25777778 7.62311111-15.36 11.37777778-27.42044444 11.37777778H451.47022222c-10.12622222 0-18.88711111-3.072-26.16888889-9.32977778-7.39555555-6.25777778-11.15022222-13.42577778-11.37777778-21.504-0.22755555-8.192 3.18577778-15.92888889 10.24-23.32444445 6.94044445-7.39555555 16.15644445-11.03644445 27.42044445-11.03644444l176.46933333 0.56888889c-0.79644445-3.52711111-1.25155555-7.05422222-1.47911111-10.80888889-0.22755555-3.64088889 1.47911111-9.216 5.00622223-16.61155556 0.34133333-1.13777778 3.52711111-6.71288889 9.55733333-16.61155555 6.03022222-9.89866667 11.03644445-19.91111111 15.13244444-30.03733333 4.096-10.12622222 8.87466667-22.75555555 14.22222223-37.888 5.46133333-15.13244445 8.87466667-26.73777778 10.24-34.70222222 1.36533333-7.96444445 3.64088889-15.36 6.94044444-22.0728889 3.29955555-6.82666667 12.51555555-10.24 27.648-10.24 10.46755555 0.34133333 18.65955555 3.86844445 24.46222222 10.46755556 5.80266667 6.59911111 8.87466667 13.53955555 9.32977778 20.93511111 0.34133333 7.39555555-1.36533333 16.83911111-5.23377778 28.55822223-16.72533333 45.85244445-34.01955555 85.21955555-51.76888889 118.2151111h59.392c9.32977778 0 17.63555555 3.18577778 25.03111111 9.55733334 7.39555555 6.37155555 11.15022222 13.53955555 11.37777778 21.27644444 0 7.96444445-3.072 15.58755555-9.216 23.21066667z" fill="#E21E28" p-id="21696"></path></svg>