<?xml version="1.0" standalone="no"?><!DOCTYPE svg PUBLIC "-//W3C//DTD SVG 1.1//EN" "http://www.w3.org/Graphics/SVG/1.1/DTD/svg11.dtd"><svg t="1758453801165" class="icon" viewBox="0 0 1024 1024" version="1.1" xmlns="http://www.w3.org/2000/svg" p-id="17677" xmlns:xlink="http://www.w3.org/1999/xlink" width="200" height="200"><path d="M460.8 89.6H128v51.2h332.8V89.6zM467.2 563.2H294.4v51.2h172.8v-51.2zM192 198.4H128v736h64v-736zM358.4 659.2h-64V928h64v-268.8z" fill="#DD7A26" p-id="17678"></path><path d="M556.8 89.6V928H896V89.6H556.8zM832 870.4h-211.2V832h140.8v-51.2h-140.8v-51.2h89.6v-51.2h-89.6v-44.8h140.8v-51.2h-140.8v-44.8h89.6v-51.2h-89.6v-44.8h140.8v-51.2h-140.8v-51.2h89.6V294.4h-89.6V243.2h140.8V198.4h-140.8V153.6H832v716.8z" fill="#3269C4" p-id="17679"></path></svg>