<?xml version="1.0" standalone="no"?><!DOCTYPE svg PUBLIC "-//W3C//DTD SVG 1.1//EN" "http://www.w3.org/Graphics/SVG/1.1/DTD/svg11.dtd"><svg t="1758453699368" class="icon" viewBox="0 0 1024 1024" version="1.1" xmlns="http://www.w3.org/2000/svg" p-id="12880" xmlns:xlink="http://www.w3.org/1999/xlink" width="200" height="200"><path d="M512 64S176 438.4 176 624c0 185.6 150.4 336 336 336s336-150.4 336-336S512 64 512 64z m0 806.4c-135.1 0-245.2-109.3-246.4-244.1-0.1-13.5 7.5-26.7 20.5-30.7 20.5-6.3 39.3 8.9 39.3 28.4 0 102.9 83.6 186.6 186.5 186.7 12.5 0 24.4 7.9 28.4 19.7 6.8 20.8-8.5 40-28.3 40z" fill="#FF0000" p-id="12881"></path></svg>