<?xml version="1.0" standalone="no"?><!DOCTYPE svg PUBLIC "-//W3C//DTD SVG 1.1//EN" "http://www.w3.org/Graphics/SVG/1.1/DTD/svg11.dtd"><svg t="1758454711208" class="icon" viewBox="0 0 1024 1024" version="1.1" xmlns="http://www.w3.org/2000/svg" p-id="56198" xmlns:xlink="http://www.w3.org/1999/xlink" width="200" height="200"><path d="M896.912105 747.023592C839.702992 995.355527 581.599364 1064.316218 344.092932 975.780207 111.296712 889.064413 30.137371 653.202563 106.618434 432.908362 180.656573 217.755477 424.805202 103.161617 647.254923 160.594265c217.484041 54.175417 309.836122 334.536791 249.641215 586.429327z" fill="#C73C3C" p-id="56199"></path><path d="M818.275521 743.750394c-58.215022 241.897307-312.310979 316.302683-540.828091 231.758377C53.353126 892.832582-21.35562 654.527809 52.42705 433.115931c71.531349-216.6857 306.036019-326.521448 523.136856-265.528199C787.746963 225.659052 879.476338 498.308453 818.275521 743.750394z" fill="#FF3D3D" p-id="56200"></path><path d="M657.266119 580.314035c2.714359 139.230661-96.279918 243.334321-226.47336 237.682067-130.145541-4.821979-228.133909-109.053373-224.71701-238.097204C208.63044 450.855067 307.241514 346.272403 432.165905 341.76976c124.988259-5.316951 223.35983 99.377481 225.100214 238.544275zM432.054137 247.789063c-176.864454 8.494348-310.65043 151.317543-315.089205 332.109835-6.753964 180.840191 126.169803 322.785212 313.15722 331.822431 187.131118 11.304508 321.699468-130.624546 315.823679-331.231659-3.193364-200.479379-136.899506-343.334508-313.90766-332.700607z" fill="#C73C3C" p-id="56201"></path><path d="M511.568896 580.090499c0.255469 54.015749-40.587654 96.77489-91.55374 95.912682-50.966086-0.798341-91.346171-43.637316-90.691532-96.07235 0.590772-52.435033 41.306161-95.274009 91.410039-95.976548 50.119845-0.766407 90.643631 42.136435 90.8512 96.136216z" fill="#C73C3C" p-id="56202"></path><path d="M579.731246 167.09276c-153.808367-45.393666-323.487752 2.634525-428.006549 109.755914 104.758299-101.612836 269.998909-146.176228 420.087007-101.309466 211.911621 58.534358 304.327569 331.247626 243.334321 576.162662-18.361842 67.124507-49.28957 122.3218-91.026835 164.027131 45.393666-42.647373 78.860119-100.559026 98.291737-171.898773 61.025182-245.777244-30.560491-518.857749-242.679681-576.737468z" fill="#FF6B6B" p-id="56203"></path><path d="M656.803081 583.235963c2.746293 139.198728-96.279918 243.222553-226.569161 237.538365-130.209409-4.885847-228.213743-109.085307-224.71701-238.129138 2.634525-129.043831 101.261566-233.626495 226.154024-238.06527 124.940358-5.26905 223.327897 99.505216 225.132147 238.656043zM431.527232 250.61519c-176.768653 8.398547-310.602529 151.237709-315.169039 332.03-6.881699 180.840191 126.042069 322.753278 313.189154 331.838399 187.290786 11.336441 321.923004-130.416977 315.951413-330.992157-3.321098-200.447445-137.043207-343.446276-313.971528-332.876242z" fill="#FFFFFF" p-id="56204"></path><path d="M518.67413 579.100557c0.287403 54.079616-40.523787 96.886657-91.473905 96.008482-50.934152-0.830275-91.378105-43.701183-90.755399-96.152184 0.558839-52.466967 41.274227-95.337876 91.378104-96.088316 50.103878-0.798341 90.627664 42.152402 90.8512 96.232018z" fill="#FFFFFF" p-id="56205"></path><path d="M580.848923 406.882447c6.418661-7.0254 12.869256-14.050801 19.335818-20.996367-6.306893 7.121201-12.59782 14.290303-18.840846 21.491339 67.475777 18.729079 134.328848 33.306784 199.888606 40.188483 71.164112-79.30719 142.743361-145.856891 203.066004-188.041227-63.94711-17.435766-127.574883-41.194393-189.68581-67.779146-24.125863-60.226841-47.197917-124.700856-65.815227-191.921164-55.61243 50.34338-127.89422 119.224237-205.157657 195.034694 14.274336 71.786818 34.58413 142.871096 57.209112 212.039355z" fill="#FFBF00" p-id="56206"></path><path d="M854.663902 544.005489c-141.14668 60.737779-282.293359 91.809209-423.440039 93.246222-16.653392 0.175635-33.801756-16.286155-37.569925-36.148878-3.768169-19.862723 7.999376-35.669874 25.54691-35.813575 147.437606-1.117677 293.486099-25.786413 438.177413-73.958305 17.212231-5.57242 30.544525 0.606739 29.554582 14.226436-0.989943 13.619697-15.551682 31.103363-32.252975 38.4481z" fill="#3F3F3F" opacity=".14" p-id="56207"></path><path d="M450.639515 626.074938c94.044564-141.226514 235.15931-294.507976 346.639639-396.104845 11.416276-10.330532 10.218764-27.622597-2.011819-40.012848-12.262517-12.358318-30.847894-14.913009-42.232236-4.454742C641.65057 288.137215 497.949199 439.566526 398.635585 576.034927c-10.059096 13.747431-5.588387 36.324513 9.101087 50.455148 14.689473 14.130635 33.466453 13.923066 42.886876-0.415137z" fill="#FFBF00" p-id="56208"></path><path d="M781.232501 447.565902c71.164112-79.30719 142.743361-145.856891 203.066004-188.041227-63.771475-17.882837-127.19168-42.248203-189.047137-69.56743-64.729484 57.847785-140.747509 134.600284-213.92344 217.420174 67.491744 18.729079 134.344815 33.306784 199.904573 40.188483z" fill="#EBB000" p-id="56209"></path></svg>