<?xml version="1.0" standalone="no"?><!DOCTYPE svg PUBLIC "-//W3C//DTD SVG 1.1//EN" "http://www.w3.org/Graphics/SVG/1.1/DTD/svg11.dtd"><svg t="1758454756797" class="icon" viewBox="0 0 1024 1024" version="1.1" xmlns="http://www.w3.org/2000/svg" p-id="56357" xmlns:xlink="http://www.w3.org/1999/xlink" width="200" height="200"><path d="M974.5 222.7m-6 0a6 6 0 1 0 12 0 6 6 0 1 0-12 0Z" fill="#D3D462" p-id="56358"></path><path d="M203.4 116.7m-4 0a4 4 0 1 0 8 0 4 4 0 1 0-8 0Z" fill="#FF455C" p-id="56359"></path><path d="M49.5 155m-6 0a6 6 0 1 0 12 0 6 6 0 1 0-12 0Z" fill="#71E7DB" p-id="56360"></path><path d="M968.4 314.7m-8 0a8 8 0 1 0 16 0 8 8 0 1 0-16 0Z" fill="#CC9EE1" p-id="56361"></path><path d="M121.9 77.8m-3.5 0a3.5 3.5 0 1 0 7 0 3.5 3.5 0 1 0-7 0Z" fill="#D3A884" p-id="56362"></path><path d="M949.4 84.8m-3.5 0a3.5 3.5 0 1 0 7 0 3.5 3.5 0 1 0-7 0Z" fill="#D3A884" p-id="56363"></path><path d="M97.4 235.7m-3.5 0a3.5 3.5 0 1 0 7 0 3.5 3.5 0 1 0-7 0Z" fill="#22B4FF" p-id="56364"></path><path d="M880.7 112.6m-8 0a8 8 0 1 0 16 0 8 8 0 1 0-16 0Z" fill="#EBB4BE" p-id="56365"></path><path d="M956.9 146.2m-7.5 0a7.5 7.5 0 1 0 15 0 7.5 7.5 0 1 0-15 0Z" fill="#FFD200" p-id="56366"></path><path d="M69.9 318.2m-7.5 0a7.5 7.5 0 1 0 15 0 7.5 7.5 0 1 0-15 0Z" fill="#FFD375" p-id="56367"></path><path d="M179.9 181.7h716.5c16.6 0 30 13.4 30 30v698c0 16.6-13.4 30-30 30H179.9c-16.6 0-30-13.4-30-30v-698c0-16.6 13.4-30 30-30z" fill="#FFDF00" p-id="56368"></path><path d="M179.9 181.7h726.5c16.6 0 30 13.4 30 30v102c0 16.6-13.4 30-30 30H179.9c-16.6 0-30-13.4-30-30v-102c0-16.6 13.4-30 30-30z" fill="#358AFE" p-id="56369"></path><path d="M896.4 949.7h-742c-22.1 0-40-17.9-40-40V544c0-5.5 4.5-10 10-10s10 4.5 10 10v365.7c0 11 9 20 20 20h742c11 0 20-9 20-20v-46c0-5.5 4.5-10 10-10s10 4.5 10 10v46c0 22.1-17.9 40-40 40z m30-205c-5.5 0-10-4.5-10-10v-523c0-11-9-20-20-20h-742c-11 0-20 9-20 20V416c0 5.5-4.5 10-10 10s-10-4.5-10-10V211.7c0-22.1 17.9-40 40-40h742c22.1 0 40 17.9 40 40v523c0 5.5-4.5 10-10 10z" fill="#222222" p-id="56370"></path><path d="M924.4 799.7m-16 0a16 16 0 1 0 32 0 16 16 0 1 0-32 0Z" fill="#222222" p-id="56371"></path><path d="M124.4 479.7m-16 0a16 16 0 1 0 32 0 16 16 0 1 0-32 0Z" fill="#222222" p-id="56372"></path><path d="M267.7 505c-3.4 0-6.6-1.8-8.5-4.7l-20.8-32.8c-3-4.7-1.6-10.8 3.1-13.8s10.8-1.6 13.8 3.1l15.5 24.5 74.2-46c4.7-2.9 10.9-1.5 13.8 3.2s1.5 10.9-3.2 13.8L273 503.5c-1.7 1-3.5 1.5-5.3 1.5zM267.7 668c-3.4 0-6.6-1.8-8.5-4.7l-20.8-32.8c-3-4.7-1.6-10.8 3.1-13.8s10.8-1.6 13.8 3.1l15.5 24.5 74.2-46c4.7-2.9 10.9-1.5 13.8 3.2s1.5 10.9-3.2 13.8L273 666.5c-1.7 1-3.5 1.5-5.3 1.5zM267.7 831c-3.4 0-6.6-1.8-8.5-4.7l-20.8-32.8c-3-4.7-1.6-10.8 3.1-13.8s10.8-1.6 13.8 3.1l15.5 24.5 74.2-46c4.7-2.9 10.9-1.5 13.8 3.2s1.5 10.9-3.2 13.8L273 829.5c-1.7 1-3.5 1.5-5.3 1.5zM804.4 478.7h-376c-5.5 0-10-4.5-10-10s4.5-10 10-10h376c5.5 0 10 4.5 10 10s-4.5 10-10 10zM801.4 641.7h-373c-5.5 0-10-4.5-10-10s4.5-10 10-10h373c5.5 0 10 4.5 10 10s-4.5 10-10 10zM801.4 804.7h-373c-5.5 0-10-4.5-10-10s4.5-10 10-10h373c5.5 0 10 4.5 10 10s-4.5 10-10 10zM920.4 360.7h-791c-5.5 0-10-4.5-10-10s4.5-10 10-10h791c5.5 0 10 4.5 10 10s-4.5 10-10 10z" fill="#222222" p-id="56373"></path><path d="M264.4 98.7h56c11 0 20 9 20 20v104c0 11-9 20-20 20h-56c-11 0-20-9-20-20v-104c0-11.1 9-20 20-20z" fill="#FFFFFF" p-id="56374"></path><path d="M283.4 98.7h56c11 0 20 9 20 20v104c0 11-9 20-20 20h-56c-11 0-20-9-20-20v-104c0-11.1 9-20 20-20z" fill="#87FFFE" p-id="56375"></path><path d="M338.4 254.7h-76c-16.6 0-30-13.4-30-30v-108c0-16.6 13.4-30 30-30h76c16.6 0 30 13.4 30 30v108c0 16.6-13.4 30-30 30z m-76-148c-5.5 0-10 4.5-10 10v108c0 5.5 4.5 10 10 10h76c5.5 0 10-4.5 10-10v-108c0-5.5-4.5-10-10-10h-76z" fill="#222222" p-id="56376"></path><path d="M497.4 98.7h56c11 0 20 9 20 20v104c0 11-9 20-20 20h-56c-11 0-20-9-20-20v-104c0-11.1 9-20 20-20z" fill="#FFFFFF" p-id="56377"></path><path d="M517.4 98.7h56c11 0 20 9 20 20v104c0 11-9 20-20 20h-56c-11 0-20-9-20-20v-104c0-11.1 9-20 20-20z" fill="#EB6877" p-id="56378"></path><path d="M573.4 254.7h-76c-16.6 0-30-13.4-30-30v-108c0-16.6 13.4-30 30-30h76c16.6 0 30 13.4 30 30v108c0 16.6-13.4 30-30 30z m-76-148c-5.5 0-10 4.5-10 10v108c0 5.5 4.5 10 10 10h76c5.5 0 10-4.5 10-10v-108c0-5.5-4.5-10-10-10h-76z" fill="#222222" p-id="56379"></path><path d="M721.4 98.7h56c11 0 20 9 20 20v104c0 11-9 20-20 20h-56c-11 0-20-9-20-20v-104c0-11.1 9-20 20-20z" fill="#FFFFFF" p-id="56380"></path><path d="M741.4 98.7h56c11 0 20 9 20 20v104c0 11-9 20-20 20h-56c-11 0-20-9-20-20v-104c0-11.1 9-20 20-20z" fill="#57EBBF" p-id="56381"></path><path d="M797.4 254.7h-76c-16.6 0-30-13.4-30-30v-108c0-16.6 13.4-30 30-30h76c16.6 0 30 13.4 30 30v108c0 16.6-13.4 30-30 30z m-76-148c-5.5 0-10 4.5-10 10v108c0 5.5 4.5 10 10 10h76c5.5 0 10-4.5 10-10v-108c0-5.5-4.5-10-10-10h-76z" fill="#222222" p-id="56382"></path></svg>