<?xml version="1.0" standalone="no"?><!DOCTYPE svg PUBLIC "-//W3C//DTD SVG 1.1//EN" "http://www.w3.org/Graphics/SVG/1.1/DTD/svg11.dtd"><svg t="1762243528664" class="icon" viewBox="0 0 1024 1024" version="1.1" xmlns="http://www.w3.org/2000/svg" p-id="6089" xmlns:xlink="http://www.w3.org/1999/xlink" width="200" height="200"><path d="M510.304 32C776.416 32 992 246.816 992 512c0 265.184-215.584 480-481.696 480C244.224 988.64 32 773.824 32 508.64S244.224 32 510.304 32z" fill="#E0E0E0" p-id="6090"></path><path d="M510.4 64C758.816 64 960 264.512 960 512s-201.216 448-449.6 448C262.08 956.864 64 756.352 64 508.864 64 261.376 262.08 64 510.4 64z" fill="#FFFFFF" p-id="6091"></path><path d="M512 96c231.104 0 416 184.896 416 416s-184.896 416-416 416S96 743.104 96 512 280.896 96 512 96z" fill="#D90C0C" p-id="6092"></path><path d="M541.344 273.92a239.84 239.84 0 0 1 64.32 17.248l28.64-49.632 50.784 29.312-28.64 49.632c17.792 13.44 33.632 29.28 47.04 47.072l49.664-28.64 29.312 50.784-49.6 28.672a240 240 0 0 1 17.216 64.32h57.28v58.656h-57.28a240 240 0 0 1-17.248 64.32l49.632 28.64-29.312 50.784-49.632-28.64a240 240 0 0 1-47.072 47.04l28.64 49.664-50.784 29.312-28.672-49.6a240 240 0 0 1-64.32 17.216v57.28h-58.624v-57.28a240 240 0 0 1-64.32-17.248l-28.672 49.632-50.784-29.312 28.64-49.632a239.936 239.936 0 0 1-47.04-47.072l-49.664 28.64-29.312-50.784 49.6-28.672a239.84 239.84 0 0 1-17.216-64.32H216.64v-58.624h57.28a239.872 239.872 0 0 1 17.248-64.32l-49.632-28.672 29.312-50.784 49.632 28.64a239.872 239.872 0 0 1 47.072-47.04l-28.64-49.664 50.784-29.312 28.672 49.6a239.872 239.872 0 0 1 64.32-17.216V216.64h58.656v57.28z m151.2 167.68a193.792 193.792 0 1 0-209.888 261.92l0.832 0.16a193.92 193.92 0 0 0 182.08-73.472 193.824 193.824 0 0 0 37.984-88.864l0.128-0.8a193.92 193.92 0 0 0-11.136-98.912zM365.344 512a146.656 146.656 0 1 1 293.312 0 146.656 146.656 0 0 1-293.312 0zM512 585.856a73.856 73.856 0 1 0 0-147.712 73.856 73.856 0 0 0 0 147.712z" fill="#FFFFFF" p-id="6093"></path></svg>