<?xml version="1.0" standalone="no"?><!DOCTYPE svg PUBLIC "-//W3C//DTD SVG 1.1//EN" "http://www.w3.org/Graphics/SVG/1.1/DTD/svg11.dtd"><svg t="1758454949568" class="icon" viewBox="0 0 1024 1024" version="1.1" xmlns="http://www.w3.org/2000/svg" p-id="75629" xmlns:xlink="http://www.w3.org/1999/xlink" width="200" height="200"><path d="M734.469854 536.482328H681.247401v-155.409563c0-19.160083-17.031185-36.191268-36.191268-36.191268h-191.600832v-61.738046c0-29.804574-12.773389-59.609148-34.06237-80.898129S368.299376 170.31185 338.494802 170.31185c-61.738046 2.128898-110.702703 55.351351-110.702702 117.089397v57.48025h-191.600832c-19.160083 0-36.191268 14.902287-36.191268 36.191268v119.218295c0 8.515593 4.257796 19.160083 10.644491 25.546778s14.902287 10.644491 25.546777 10.64449h19.160083c61.738046 0 114.960499 46.835759 117.089397 110.702703 0 29.804574-10.644491 59.609148-31.933471 80.898129s-51.093555 34.06237-80.898129 34.06237H36.191268c-19.160083 0-36.191268 17.031185-36.191268 36.191268v191.600832c0 14.902287 17.031185 31.933472 36.191268 31.933472H191.600832c8.515593 0 19.160083-4.257796 25.546777-10.644491 6.386694-6.386694 10.644491-14.902287 10.644491-25.546777v-17.031185c0-61.738046 48.964657-114.960499 110.702702-117.089397 29.804574 0 59.609148 10.644491 80.898129 31.933471s34.06237 48.964657 34.06237 80.898129v23.41788c0 8.515593 4.257796 19.160083 10.644491 25.546777 6.386694 6.386694 14.902287 10.644491 25.546778 10.644491h155.409563c19.160083 0 36.191268-17.031185 36.191268-36.191268V760.016632h57.48025c29.804574 0 59.609148-12.773389 80.898129-34.06237s31.933472-51.093555 31.933472-80.898129c-2.128898-61.738046-55.351351-110.702703-117.089398-108.573805z" fill="#EF5C54" p-id="75630"></path><path d="M596.091476 0h340.623701c46.835759 0 85.155925 38.320166 85.155925 85.155925v340.623701c0 46.835759-38.320166 85.155925-85.155925 85.155925H596.091476c-46.835759 0-85.155925-38.320166-85.155925-85.155925V85.155925c0-46.835759 38.320166-85.155925 85.155925-85.155925z" fill="#E8645D" opacity=".6" p-id="75631"></path><path d="M919.683992 510.935551H613.122661c-55.351351 0-102.18711-46.835759-102.18711-102.18711V102.18711C510.935551 46.835759 557.77131 0 613.122661 0h306.561331C975.035343 0 1021.871102 46.835759 1021.871102 102.18711v306.561331c0 55.351351-46.835759 102.18711-102.18711 102.18711zM613.122661 34.06237c-38.320166 0-68.12474 29.804574-68.12474 68.12474v306.561331c0 38.320166 29.804574 68.12474 68.12474 68.12474h306.561331c38.320166 0 68.12474-29.804574 68.12474-68.12474V102.18711c0-38.320166-29.804574-68.12474-68.12474-68.12474H613.122661z" fill="#F58E8C" p-id="75632"></path><path d="M760.357256 121.368482h-100.058212c-19.160083 0-34.06237 14.902287-34.06237 31.933472s14.902287 31.933472 36.191268 31.933472h97.929314c21.288981 0 36.191268-14.902287 36.191268-31.933472s-14.902287-31.933472-36.191268-31.933472zM885.962245 227.813389h-219.276507c-21.288981 0-38.320166 14.902287-38.320166 31.933472s14.902287 31.933472 36.191268 31.933472h221.405405c21.288981 0 38.320166-14.902287 38.320167-31.933472s-17.031185-31.933472-38.320167-31.933472zM849.770977 330.000499h-187.343035c-19.160083 0-34.06237 14.902287-34.06237 31.933472s14.902287 31.933472 34.06237 31.933472h187.343035c19.160083 0 34.06237-14.902287 34.06237-31.933472s-14.902287-31.933472-34.06237-31.933472z" fill="#FFFFFF" p-id="75633"></path></svg>