<?xml version="1.0" standalone="no"?><!DOCTYPE svg PUBLIC "-//W3C//DTD SVG 1.1//EN" "http://www.w3.org/Graphics/SVG/1.1/DTD/svg11.dtd"><svg t="1758452600389" class="icon" viewBox="0 0 1138 1024" version="1.1" xmlns="http://www.w3.org/2000/svg" p-id="13963" xmlns:xlink="http://www.w3.org/1999/xlink" width="222.265625" height="200"><path d="M570.889062 972.329993v-173.50309" fill="#B3E45C" p-id="13964"></path><path d="M570.889062 996.844063a24.575508 24.575508 0 0 1-24.575508-24.575508V798.704026a24.575508 24.575508 0 0 1 49.151017 0v173.441651a24.575508 24.575508 0 0 1-24.575509 24.698386z" fill="#256782" p-id="13965"></path><path d="M875.50249 999.424492H266.275634" fill="#B3E45C" p-id="13966"></path><path d="M875.50249 1024H266.275634a24.575508 24.575508 0 0 1 0-49.151017h609.226856a24.575508 24.575508 0 0 1 0 49.151017zM1064.97966 748.447111H73.726525a73.726525 73.726525 0 0 1-73.726525-73.726525V73.726525A73.726525 73.726525 0 0 1 73.726525 0h991.253135a73.726525 73.726525 0 0 1 73.726526 73.726525v600.994061a73.726525 73.726525 0 0 1-73.726526 73.726525zM73.726525 49.151017a24.575508 24.575508 0 0 0-24.575508 24.575508v600.994061a24.575508 24.575508 0 0 0 24.575508 24.575508h991.253135a24.575508 24.575508 0 0 0 24.575509-24.575508V73.726525a24.575508 24.575508 0 0 0-24.575509-24.575508z" fill="#256782" p-id="13967"></path><path d="M414.097318 541.705646H257.428451a73.726525 73.726525 0 0 1-73.726525-73.726526v-224.251515a73.726525 73.726525 0 0 1 73.726525-73.726525h156.668867a73.726525 73.726525 0 0 1 73.726526 73.726525v224.251515a73.726525 73.726525 0 0 1-73.726526 73.726526z m-156.668867-322.553549a24.575508 24.575508 0 0 0-24.575508 24.575508v224.251515a24.575508 24.575508 0 0 0 24.575508 24.575509h156.668867a24.575508 24.575508 0 0 0 24.575509-24.575509v-224.251515a24.575508 24.575508 0 0 0-24.575509-24.575508z" fill="#256782" p-id="13968"></path><path d="M368.632627 314.566509H287.840643a20.827743 20.827743 0 1 1 0-41.655487H368.632627a20.827743 20.827743 0 1 1 0 41.655487zM368.632627 387.862963H287.840643a20.827743 20.827743 0 1 1 0-41.655487H368.632627a20.827743 20.827743 0 1 1 0 41.655487z" fill="#256782" p-id="13969"></path><path d="M685.656687 274.754185h55.294894v116.733665h-55.294894zM685.656687 483.646007h55.294894v116.733665h-55.294894zM929.875802 383.255055l-50.99418-50.134037 51.547129-52.222956 34.774345 50.686986-35.327294 51.670007zM888.404632 483.646007h55.294894v116.733665h-55.294894z" fill="#B3E45C" p-id="13970"></path><path d="M731.797204 409.919482h-86.01428a33.729885 33.729885 0 0 1-33.729885-33.729886v-86.01428a33.729885 33.729885 0 0 1 33.729885-33.729885h86.01428a33.729885 33.729885 0 0 1 33.729885 33.729885v86.01428a33.729885 33.729885 0 0 1-33.729885 33.729886z m-83.00378-36.863263h79.870403v-79.870403h-79.870403zM731.797204 618.811304h-86.01428a33.729885 33.729885 0 0 1-33.729885-33.729886v-86.014279a33.729885 33.729885 0 0 1 33.729885-33.729886h86.01428a33.729885 33.729885 0 0 1 33.729885 33.729886v86.014279a33.729885 33.729885 0 0 1-33.729885 33.729886z m-83.00378-36.863263h79.870403v-79.870403h-79.870403zM891.47657 413.052859a33.607008 33.607008 0 0 1-23.838243-9.891642l-46.263394-46.263395a33.729885 33.729885 0 0 1 0-47.676486l46.263394-46.263395a33.729885 33.729885 0 0 1 47.676487 0l46.263394 46.263395a33.729885 33.729885 0 0 1 0 47.676486L915.437691 403.222656a33.607008 33.607008 0 0 1-23.961121 9.830203z m-41.839803-79.870403L891.47657 374.776504l41.839804-41.839803-41.839804-41.839803zM934.545149 618.811304h-86.01428a33.729885 33.729885 0 0 1-33.729885-33.729886v-86.014279a33.729885 33.729885 0 0 1 33.729885-33.729886h86.01428a33.729885 33.729885 0 0 1 33.729885 33.729886v86.014279a33.729885 33.729885 0 0 1-33.729885 33.729886z m-83.00378-36.863263h79.870403v-79.870403h-79.870403z" fill="#256782" p-id="13971"></path></svg>