<?xml version="1.0" standalone="no"?><!DOCTYPE svg PUBLIC "-//W3C//DTD SVG 1.1//EN" "http://www.w3.org/Graphics/SVG/1.1/DTD/svg11.dtd"><svg t="1758452666058" class="icon" viewBox="0 0 1024 1024" version="1.1" xmlns="http://www.w3.org/2000/svg" p-id="16130" xmlns:xlink="http://www.w3.org/1999/xlink" width="200" height="200"><path d="M330.24 676.096c13.7216 0.5888 24.5248 12.0064 24.5248 25.856 0 13.8752-10.8032 25.2928-24.4992 25.856H230.8096a26.9568 26.9568 0 0 0-20.3776 6.5792c-5.632 4.9152-9.0112 11.9552-9.3696 19.456 0.256 7.7312 3.6608 15.0016 9.4208 20.1216 5.76 5.0944 13.3632 7.552 20.992 6.784h562.7648c3.072 0 6.0672 0.5632 8.8064 1.5616h6.1184a77.2352 77.2352 0 0 1 70.2208 37.9136c14.72 24.7552 14.7456 55.7056 0.0768 80.4864a77.2352 77.2352 0 0 1-70.144 38.016h-505.6a25.7536 25.7536 0 0 1-24.4992-25.856c0-13.8496 10.8032-25.2672 24.5248-25.856l506.5216 0.0512c10.1888 1.2032 20.1728-3.6864 25.5488-12.5184 5.4016-8.832 5.248-20.0448-0.4096-28.7232a26.3168 26.3168 0 0 0-25.9328-11.7248H698.88a25.472 25.472 0 0 1-4.608-0.4096l-462.7456-0.0512C188.4928 833.6384 153.6 798.3616 153.6 754.8672c0-43.52 34.8672-78.7712 77.9008-78.7712H330.24z" fill="#108EE9" p-id="16131"></path><path d="M532.5824 76.8C382.0544 76.8 259.328 204.2368 259.328 360.96c0 72.0384 25.728 140.4672 72.6528 192.9472l159.5392 190.0544c1.7408 2.176 17.408 20.2752 40.6784 20.2752 14.2592 0 27.8016-6.528 41.3696-20.2752l163.0208-194.048c44.8256-52.1216 69.1712-119.0912 69.1712-188.928C805.7856 204.2112 683.0848 76.8 532.5824 76.8z m1.7408 381.5424h-1.408c-31.9744 0-62.208-17.7408-78.5664-46.6944a98.5856 98.5856 0 0 1 0-95.2064 89.856 89.856 0 0 1 78.2336-46.6944c50.048 0.7168 91.0592 43.0848 90.7008 94.464 0.7168 50.688-39.6032 93.4144-88.96 94.1312z" fill="#108EE9" p-id="16132"></path></svg>