<?xml version="1.0" standalone="no"?><!DOCTYPE svg PUBLIC "-//W3C//DTD SVG 1.1//EN" "http://www.w3.org/Graphics/SVG/1.1/DTD/svg11.dtd"><svg t="1758452559471" class="icon" viewBox="0 0 1024 1024" version="1.1" xmlns="http://www.w3.org/2000/svg" p-id="11069" xmlns:xlink="http://www.w3.org/1999/xlink" width="200" height="200"><path d="M435.785 792.002c-7.059-7.809-15.429-13.981-25.118-18.34-9.689-4.364-19.871-6.537-30.702-6.537-11.324 0-21.835 2.173-31.524 6.537-9.681 4.354-18.059 10.531-25.122 18.34-7.055 7.814-12.803 17.077-17.068 27.786-4.273 10.719-6.406 21.981-6.406 33.964 0 11.991 2.132 23.25 6.406 33.964 4.265 10.718 9.845 19.982 17.068 27.786 7.063 7.81 15.438 14.168 25.122 18.886 9.689 4.729 20.195 7.092 31.524 7.092 10.835 0 21.013-2.363 30.702-7.092 9.689-4.718 18.059-11.076 25.118-18.886 7.059-7.804 12.808-17.068 17.073-27.786 4.273-10.714 6.401-21.973 6.401-33.964 0-11.982-2.128-23.245-6.401-33.964-4.43-10.709-10.014-19.972-17.073-27.786zM790.579 793.82c-7.06-7.81-15.602-13.986-25.615-18.345-9.854-4.36-20.359-6.542-31.03-6.542-10.836 0-21.014 2.188-30.702 6.542-9.685 4.358-18.059 10.535-25.122 18.345-7.051 7.81-12.804 17.068-17.073 27.786-4.265 10.715-6.401 21.973-6.401 33.964 0 11.986 2.137 23.245 6.401 33.964 4.27 10.713 9.857 19.978 17.073 27.79 7.063 7.805 15.438 14.165 25.122 18.882 9.688 4.728 19.866 7.087 30.702 7.087 10.839 0 21.177-2.359 31.03-7.087a84.216 84.216 0 0 0 25.615-18.882c7.06-7.813 12.804-17.077 17.072-27.79 4.266-10.719 6.402-21.978 6.402-33.964 0-11.991-2.137-23.249-6.402-33.964-4.268-10.717-9.857-19.972-17.072-27.786zM932.757 269.48c-3.78-6.9-10.018-12.709-18.721-17.432-8.867-4.722-38.743-10.895-51.551 25.423l-74.864 220.854h-8.703c2.137-7.082 3.283-14.527 3.283-22.518v-73.382c0-40.137-29.383-72.646-65.674-72.646h-66.326c-36.282 0-65.669 32.509-65.669 72.646v73.382c0 7.627 1.146 15.072 3.119 21.973H552.68c1.973-6.9 3.119-14.346 3.119-21.973v-73.382c0-40.137-29.388-72.646-65.673-72.646h-66.327c-36.282 0-65.669 32.509-65.669 72.646v73.382c0 7.445 0.986 14.708 2.954 21.609h-31.359s-60.085-332-61.235-336.904c-1.15-4.359-2.465-9.623-4.273-15.623-1.635-5.991-4.594-11.805-8.534-17.432-3.94-5.632-9.356-10.359-16.251-14.168-7.059-3.818-17.734-5.627-29.063-5.627H140.76c-13.136-0.545-23.479 3.082-31.031 11.254-7.717 8.177-11.493 18.527-11.493 31.059 0 6.359 0.657 13.259 2.132 20.705 1.479 7.445 3.941 14.527 7.717 21.254 3.776 6.536 8.374 12.345 14.118 16.886 5.749 4.723 12.808 7.082 21.346 7.082h63.865a55442.72 55442.72 0 0 1 36.61 211.768c4.598 27.063 9.032 53.946 13.625 80.459 4.602 26.7 8.703 50.854 12.318 72.468 3.608 21.609 6.73 39.773 9.352 54.123 2.63 14.35 4.109 23.609 4.767 27.24 1.639 9.446 4.101 19.437 7.223 30.146 3.119 10.724 7.224 20.527 12.311 29.61 5.087 9.081 11.497 16.526 19.209 22.159 7.716 5.627 17.237 8.54 28.569 8.54h445.91c15.922 0.537 26.593-3.818 31.844-13.264 5.424-9.445 8.046-20.346 8.046-32.873 0-25.791-13.625-38.682-40.876-38.682H366.339l-16.912-84.822h451.819c16.419 0 30.209-4.9 41.208-14.527 11-9.805 20.36-27.063 27.748-52.305 3.94-11.99 9.195-28.336 15.762-49.041s13.132-41.591 19.534-62.659c6.57-21.063 12.643-40.318 18.227-57.936 5.745-17.614 9.36-29.236 10.996-34.873 1.644-5.627 2.63-12.35 2.958-20.159 0.493-7.444-1.151-14.894-4.922-21.794zM498.006 475.808c0 5.082-3.608 9.077-8.202 9.077H423.47c-4.594 0-8.21-3.996-8.21-9.077v-73.377c0-5.087 3.616-9.087 8.21-9.087h66.334c4.594 0 8.202 4 8.202 9.087v73.377z" fill="#040000" p-id="11070"></path><path d="M653.324 303.444h66.326c36.282 0 65.669-32.509 65.669-72.646v-73.373c0-40.141-29.387-72.65-65.669-72.65h-66.326c-36.286 0-65.673 32.509-65.673 72.65v73.373c0 40.138 29.387 72.646 65.673 72.646z m-8.21-146.018c0-5.091 3.612-9.082 8.21-9.082h66.326c4.598 0 8.21 3.995 8.21 9.082v73.373c0 5.082-3.616 9.082-8.21 9.082h-66.326c-4.603 0-8.21-4-8.21-9.082v-73.373zM426.757 303.444h66.327c36.281 0 65.669-32.509 65.669-72.646v-73.373c0-40.141-29.388-72.65-65.669-72.65h-66.327c-36.282 0-65.673 32.509-65.673 72.65v73.373c0 40.138 29.392 72.646 65.673 72.646z" fill="#040000" p-id="11071"></path></svg>