<?xml version="1.0" standalone="no"?><!DOCTYPE svg PUBLIC "-//W3C//DTD SVG 1.1//EN" "http://www.w3.org/Graphics/SVG/1.1/DTD/svg11.dtd"><svg t="1758452794334" class="icon" viewBox="0 0 1024 1024" version="1.1" xmlns="http://www.w3.org/2000/svg" p-id="20047" xmlns:xlink="http://www.w3.org/1999/xlink" width="200" height="200"><path d="M930.886206 0.01664H93.097154A91.390515 91.390515 0 0 0 0 89.615184v665.589184a91.689177 91.689177 0 0 0 93.097154 89.598544H401.486809a8.917188 8.917188 0 0 1 7.765207 13.909107L325.797372 979.200728V1024h372.388616v-44.799272l-83.454644-120.488709a8.917188 8.917188 0 0 1 7.722541-13.909107h308.432321A91.689177 91.689177 0 0 0 1023.98336 755.204368V89.615184A91.390515 91.390515 0 0 0 930.886206 0.01664zM810.653494 418.143179h-133.373833a4.863921 4.863921 0 0 0-4.266597 2.303962l-118.270079 196.263477-121.299362-281.168764-36.778069 79.956034a4.778589 4.778589 0 0 1-4.266597 2.730622H213.329867V365.408035h136.531114a4.821255 4.821255 0 0 0 4.266598-2.730622l76.798752-167.421279a4.863921 4.863921 0 0 1 8.78919 0l121.043367 280.614106a4.863921 4.863921 0 0 0 8.533194 0.554658l65.620267-108.798232a4.863921 4.863921 0 0 1 4.266598-2.303962H810.653494V418.143179z" fill="#666666" p-id="20048"></path></svg>