<?xml version="1.0" standalone="no"?><!DOCTYPE svg PUBLIC "-//W3C//DTD SVG 1.1//EN" "http://www.w3.org/Graphics/SVG/1.1/DTD/svg11.dtd"><svg t="1758454286802" class="icon" viewBox="0 0 1024 1024" version="1.1" xmlns="http://www.w3.org/2000/svg" p-id="32237" xmlns:xlink="http://www.w3.org/1999/xlink" width="200" height="200"><path d="M0 0m349.090909 0l325.818182 0q349.090909 0 349.090909 349.090909l0 325.818182q0 349.090909-349.090909 349.090909l-325.818182 0q-349.090909 0-349.090909-349.090909l0-325.818182q0-349.090909 349.090909-349.090909Z" fill="#F96C17" p-id="32238"></path><path d="M490.670545 533.329455a21.329455 21.329455 0 0 1 2.490182 42.519272l-2.490182 0.151273h-192v149.329455h192c10.821818 0 19.909818 8.098909 21.178182 18.850909l0.151273 2.490181c0 10.821818-8.098909 19.909818-18.839273 21.178182l-2.490182 0.151273H288a32 32 0 0 1-31.848727-28.928L256 736V565.329455a32 32 0 0 1 28.928-31.848728l3.072-0.151272h202.670545z m209.803637 21.34109l59.997091 106.65891L700.485818 768H579.502545l-59.985454-106.670545 59.985454-106.65891h120.96zM640 629.329455a32 32 0 1 0 0 64 32 32 0 0 0 0-64z m-245.329455-10.65891c7.098182 0 10.658909 3.549091 10.65891 10.65891v42.670545c0 7.109818-3.549091 10.670545-10.65891 10.670545h-21.34109c-7.098182 0-10.658909-3.560727-10.65891-10.670545v-42.670545c0-7.098182 3.549091-10.658909 10.65891-10.65891h21.34109z m85.329455 0c7.109818 0 10.670545 3.549091 10.670545 10.65891v42.670545c0 7.109818-3.560727 10.670545-10.670545 10.670545h-21.329455c-7.109818 0-10.670545-3.560727-10.670545-10.670545v-42.670545c0-7.098182 3.560727-10.658909 10.670545-10.65891h21.329455zM736 256a32 32 0 0 1 31.941818 30.045091l0.058182 1.954909v170.670545a32 32 0 0 1-30.045091 31.941819l-1.954909 0.058181h-448a32 32 0 0 1-31.941818-30.056727L256 458.670545V288a32 32 0 0 1 30.045091-31.941818L288 256h448z m-341.329455 85.329455h-21.34109c-6.597818 0-10.135273 3.072-10.612364 9.192727l-0.046546 1.477818v42.670545c0 6.597818 3.060364 10.135273 9.192728 10.612364l1.466182 0.046546h21.34109c6.597818 0 10.135273-3.060364 10.612364-9.192728l0.046546-1.466182V352c0-7.109818-3.549091-10.670545-10.65891-10.670545z m85.329455 0h-21.329455c-6.609455 0-10.146909 3.072-10.612363 9.192727l-0.058182 1.477818v42.670545c0 6.597818 3.060364 10.135273 9.192727 10.612364l1.477818 0.046546h21.329455c6.597818 0 10.135273-3.060364 10.612364-9.192728l0.058181-1.466182V352c0-7.109818-3.560727-10.670545-10.670545-10.670545z" fill="#FFFFFF" p-id="32239"></path></svg>