<?xml version="1.0" standalone="no"?><!DOCTYPE svg PUBLIC "-//W3C//DTD SVG 1.1//EN" "http://www.w3.org/Graphics/SVG/1.1/DTD/svg11.dtd"><svg t="1758452625544" class="icon" viewBox="0 0 1024 1024" version="1.1" xmlns="http://www.w3.org/2000/svg" p-id="14961" xmlns:xlink="http://www.w3.org/1999/xlink" width="200" height="200"><path d="M0 0m122.88 0l778.24 0q122.88 0 122.88 122.88l0 778.24q0 122.88-122.88 122.88l-778.24 0q-122.88 0-122.88-122.88l0-778.24q0-122.88 122.88-122.88Z" fill="#3B80C3" p-id="14962"></path><path d="M512 851.1488A311.0912 311.0912 0 0 1 207.2576 614.4a12.1856 12.1856 0 0 1 23.7568-5.7344A290.5088 290.5088 0 0 0 778.24 652.9024a12.1856 12.1856 0 1 1 22.528 9.4208A312.5248 312.5248 0 0 1 512 851.1488z" fill="#FFFFFF" p-id="14963"></path><path d="M210.944 542.72l52.4288 92.16-42.5984-17.6128L184.32 645.12zM804.864 486.1952a11.8784 11.8784 0 0 1-11.8784-9.4208A290.5088 290.5088 0 0 0 245.76 432.5376a12.1856 12.1856 0 1 1-22.528-9.4208 314.9824 314.9824 0 0 1 593.92 48.3328 12.1856 12.1856 0 0 1-9.0112 14.7456c-1.2288-0.4096-2.4576 0-3.2768 0z" fill="#FFFFFF" p-id="14964"></path><path d="M813.056 542.72l-52.4288-92.16 42.5984 17.6128L839.68 440.32zM481.28 737.28a9.4208 9.4208 0 0 1-5.7344-1.6384 11.6736 11.6736 0 0 1-5.7344-14.336l45.056-144.1792h-67.584a12.0832 12.0832 0 0 1-12.288-12.288V532.48a13.824 13.824 0 0 1 2.048-6.9632l115.0976-172.032a12.288 12.288 0 0 1 14.7456-4.5056 11.8784 11.8784 0 0 1 6.5536 13.9264l-29.9008 157.696h69.2224a12.0832 12.0832 0 0 1 12.288 12.288v31.9488a10.8544 10.8544 0 0 1-2.8672 7.7824l-133.12 160.1536A10.8544 10.8544 0 0 1 481.28 737.28z m-22.1184-184.32h71.68a12.1856 12.1856 0 0 1 10.24 4.9152 11.9808 11.9808 0 0 1 1.6384 10.6496l-31.5392 100.7616 90.112-108.544v-15.1552h-71.68a12.288 12.288 0 0 1-9.4208-4.5056 11.5712 11.5712 0 0 1-2.4576-10.24l21.2992-112.64-79.872 118.784z" fill="#FFFFFF" p-id="14965"></path></svg>