<?xml version="1.0" standalone="no"?><!DOCTYPE svg PUBLIC "-//W3C//DTD SVG 1.1//EN" "http://www.w3.org/Graphics/SVG/1.1/DTD/svg11.dtd"><svg t="1758452719139" class="icon" viewBox="0 0 1024 1024" version="1.1" xmlns="http://www.w3.org/2000/svg" p-id="18172" xmlns:xlink="http://www.w3.org/1999/xlink" width="200" height="200"><path d="M942.3 210.6c33.6 81.2 17.6 178-48.4 243.9-72.6 72.7-182.4 83.9-267.6 35.9l-61.7 67.4 44 44.1 26.2-26.3c13.5-13.5 35.3-13.5 48.7 0L896.9 791c13.4 13.4 13.4 35.2 0 48.7l-97.4 97.4c-13.4 13.4-35.3 13.4-48.7 0L537.6 721.6c-13.4-13.4-13.4-35.3 0-48.7l24-24-41.9-42-295 322.2c-26.9 26.9-70.5 26.9-97.4 0L103 904.8c-26.9-26.9-26.9-70.4 0-97.3L439 526 215.8 302.3l-70.4-0.1-81.5-131.1 65.6-65.8 134.2 82.1 0.9 69 225.7 226.7 65.7-55c-64.2-87.5-57.5-210.8 21.6-289.9 65.6-65.6 161.9-81.9 242.8-48.9L675.7 231.9l121.7 121.6 144.9-142.9zM183.8 841.7c-13.4-13.4-35.2-13.4-48.7 0-13.4 13.5-13.4 35.2 0 48.7 13.4 13.4 35.2 13.4 48.7 0 13.4-13.4 13.4-35.2 0-48.7z m0 0" p-id="18173"></path></svg>