<?xml version="1.0" standalone="no"?><!DOCTYPE svg PUBLIC "-//W3C//DTD SVG 1.1//EN" "http://www.w3.org/Graphics/SVG/1.1/DTD/svg11.dtd"><svg t="1758452687120" class="icon" viewBox="0 0 1024 1024" version="1.1" xmlns="http://www.w3.org/2000/svg" p-id="17127" xmlns:xlink="http://www.w3.org/1999/xlink" width="200" height="200"><path d="M512 0c282.763636 0 512 229.236364 512 512s-229.236364 512-512 512S0 794.763636 0 512 229.236364 0 512 0z m279.272727 558.545455H232.727273v108.590545c0 17.082182 15.732364 31.045818 34.909091 31.045818h488.727272c19.223273 0 34.909091-13.963636 34.909091-31.045818V558.545455z m-93.090909 46.545454v46.545455h-46.545454v-46.545455h46.545454z m9.495273-279.272727h-389.585455c-16.011636 0-30.254545 8.610909-35.560727 21.504L232.727273 512h558.545454l-49.803636-166.167273c-5.352727-11.403636-17.780364-20.014545-33.792-20.014545z" fill="#FF6B75" p-id="17128"></path></svg>