<?xml version="1.0" standalone="no"?><!DOCTYPE svg PUBLIC "-//W3C//DTD SVG 1.1//EN" "http://www.w3.org/Graphics/SVG/1.1/DTD/svg11.dtd"><svg t="1758452876136" class="icon" viewBox="0 0 1024 1024" version="1.1" xmlns="http://www.w3.org/2000/svg" p-id="23267" xmlns:xlink="http://www.w3.org/1999/xlink" width="200" height="200"><path d="M397.123877 1023.965441H257.608586a55.038142 55.038142 0 0 1-56.3181-55.678121v-46.718423l-36.478768 23.039222a56.318099 56.318099 0 0 1-46.078445 7.679741 51.198272 51.198272 0 0 1-33.278877-26.239114L10.576923 801.252958a51.83825 51.83825 0 0 1-5.759806-46.718424 51.198272 51.198272 0 0 1 29.439007-31.358941l35.198812-23.039223-36.478769-23.039222a49.918315 49.918315 0 0 1-28.15905-30.718963 55.038142 55.038142 0 0 1 7.039763-49.278337l69.757646-122.235875a57.598056 57.598056 0 0 1 76.157429-22.399244l39.678661 24.959158v-44.798488A55.038142 55.038142 0 0 1 257.608586 376.947278h139.515291a54.398164 54.398164 0 0 1 55.678121 55.678121v43.518531l42.238574-25.599136a57.598056 57.598056 0 0 1 72.957538 24.959158L641.595626 599.659761a63.99784 63.99784 0 0 1-23.679201 78.077365l-36.478769 26.239115 36.478769 22.399244a53.758186 53.758186 0 0 1 28.799028 31.358941 56.958078 56.958078 0 0 1-7.67974 49.278337l-69.757646 119.035983a56.318099 56.318099 0 0 1-75.517451 22.399244l-40.31864-24.959158v44.798488a54.398164 54.398164 0 0 1-56.318099 55.678121zM257.608586 959.967601h127.99568v-74.237494l17.279417-8.959698a255.99136 255.99136 0 0 0 29.439006-15.99946l16.639439-10.239654 63.99784 40.318639 63.99784-115.196112-63.99784-40.31864V665.577537l63.99784-40.318639L518.079795 511.982721l-63.99784 40.318639-17.279417-12.799568a104.956458 104.956458 0 0 0-24.959158-14.719503l-21.119287-7.039763V439.025183H257.608586v76.15743l-17.279417 8.959697c-9.599676 5.119827-20.479309 10.239654-29.439007 15.99946l-16.639438 10.239655-61.437926-38.398704L65.615065 625.258898l63.997841 40.318639v69.757645l-63.997841 41.598596 63.997841 112.636199 63.99784-42.878553 16.639438 11.519611a152.954838 152.954838 0 0 0 25.599136 14.719504l20.479309 7.039762z m-122.235875-63.99784z m451.824751-272.630799zM513.599946 505.582937z m-191.99352 319.9892a124.795788 124.795788 0 1 1 124.15581-127.99568 124.15581 124.15581 0 0 1-120.31594 127.355702z m0-186.873693a63.99784 63.99784 0 1 0 63.99784 63.99784 63.99784 63.99784 0 0 0-60.15797-62.717883zM1014.703034 570.220755l-30.718963-19.199352v-19.199352l30.078984-19.199352a14.079525 14.079525 0 0 0 5.759806-19.199352l-40.318639-70.397624a15.359482 15.359482 0 0 0-19.199352-5.759806l-30.078985 19.199352a79.9973 79.9973 0 0 0-17.919395-9.599676V390.386824a14.079525 14.079525 0 0 0-14.719504-14.079524h-79.9973a14.079525 14.079525 0 0 0-14.079524 14.079524v35.838791a172.15419 172.15419 0 0 0-18.559374 10.239654l-30.078985-19.199352a14.079525 14.079525 0 0 0-19.199352 5.759806l-40.318639 69.757646a15.99946 15.99946 0 0 0 0 12.799568 10.879633 10.879633 0 0 0 7.039762 7.039762l30.078985 19.199352v19.199352l-28.799028 18.559374a12.799568 12.799568 0 0 0-8.319719 7.67974 13.439546 13.439546 0 0 0 0 12.15959l39.678661 70.397624a11.519611 11.519611 0 0 0 7.67974 5.759806 13.439546 13.439546 0 0 0 12.15959 0l30.078985-19.199352a79.9973 79.9973 0 0 0 17.919395 9.599676v37.758725a13.439546 13.439546 0 0 0 14.079525 14.079525H897.586986a13.439546 13.439546 0 0 0 14.079525-14.079525v-35.83879a172.15419 172.15419 0 0 0 18.559374-10.239654l30.078985 19.199352a14.079525 14.079525 0 0 0 19.199352-5.759806l40.318639-69.757646a15.359482 15.359482 0 0 0 0-12.799568 10.879633 10.879633 0 0 0-5.119827-8.319719z m-157.434687 37.118747a63.99784 63.99784 0 1 1 63.99784-63.99784 63.99784 63.99784 0 0 1-63.99784 63.99784zM582.077635 0S449.602106 210.552894 463.681631 309.109568a135.035443 135.035443 0 0 0 118.396004 127.99568 135.675421 135.675421 0 0 0 118.396004-127.99568C713.913185 210.552894 582.077635 0 582.077635 0z" fill="#26AA2B" p-id="23268"></path></svg>