<?xml version="1.0" standalone="no"?><!DOCTYPE svg PUBLIC "-//W3C//DTD SVG 1.1//EN" "http://www.w3.org/Graphics/SVG/1.1/DTD/svg11.dtd"><svg t="1758452578911" class="icon" viewBox="0 0 1024 1024" version="1.1" xmlns="http://www.w3.org/2000/svg" p-id="12937" xmlns:xlink="http://www.w3.org/1999/xlink" width="200" height="200"><path d="M994.26 819.2L694.579 528.828c-13.964-13.248-36.879-13.248-50.842 0l-21.84 18.976-51.559-49.768s82.708-86.646 87.004-84.856c88.079 37.237 150.378 20.409 222.344-45.829 63.016-60.151 76.621-147.155 43.682-215.541L799.843 267.815c-12.531 11.816-32.582 11.816-45.113 0l-52.632-50.125c-12.532-11.816-12.532-31.15 0-42.966L820.252 62.657c-68.028-20.766-148.23-2.864-205.517 51.916-93.449 85.572-79.127 146.798-46.903 214.826 1.432 2.864-83.066 88.794-83.066 88.794h-5.37L207.642 157.538s11.815-34.014-8.593-53.348l-43.681-40.1-82.708 79.127 43.681 40.1s33.298 19.335 57.287 8.235l264.235 255.284 5.37 8.951L97.365 756.543l-45.113 42.965c-39.385 37.594-39.385 98.82 0 136.414s103.474 37.594 142.858 0l45.114-42.965s203.01-250.272 291.804-351.598l47.62 45.83-26.138 28.643c-13.963 13.606-13.963 35.088 0 48.694l297.533 286.791c13.964 13.606 36.878 13.606 50.842 0l92.017-83.065c14.322-13.964 14.322-35.446 0.358-49.052z m-825.287 44.755c-12.531 11.816-32.582 11.816-45.113 0s-12.532-31.15 0-42.965c12.531-11.815 32.582-11.815 45.113 0s12.532 31.15 0 42.965z m722.529 44.04c-6.087 5.728-15.754 5.728-21.483 0l-266.74-267.1c-6.088-5.729-6.088-15.038 0-20.766 6.086-5.729 15.753-5.729 21.482 0L891.5 887.228c6.088 5.729 6.088 15.038 0 20.766z m55.496-52.99c-6.086 5.728-15.753 5.728-21.482 0l-266.741-267.1c-6.087-5.729-6.087-15.038 0-20.767 6.086-5.728 15.753-5.728 21.482 0l266.741 267.1c6.087 5.728 6.087 15.038 0 20.766z" p-id="12938"></path></svg>