<?xml version="1.0" standalone="no"?><!DOCTYPE svg PUBLIC "-//W3C//DTD SVG 1.1//EN" "http://www.w3.org/Graphics/SVG/1.1/DTD/svg11.dtd"><svg t="1758453422782" class="icon" viewBox="0 0 1024 1024" version="1.1" xmlns="http://www.w3.org/2000/svg" p-id="50052" xmlns:xlink="http://www.w3.org/1999/xlink" width="200" height="200"><path d="M512 1024A512 512 0 1 0 512 0a512 512 0 0 0 0 1024zM415.378286 292.864L410.258286 292.571429c2.413714 0 4.827429 0.219429 7.094857 0.658285 5.193143 0.731429 10.24 2.56 15.067428 5.339429l284.745143 193.316571c21.284571 12.288 28.598857 39.497143 16.310857 60.708572l-0.877714 1.462857a36.059429 36.059429 0 0 1-1.974857 2.925714l2.925714-4.388571a44.397714 44.397714 0 0 1-9.362285 11.337143c-13.092571 12.361143-34.084571 23.625143-46.372572 30.866285l-244.882286 144.822857a44.470857 44.470857 0 0 1-66.048-48.566857A60.050286 60.050286 0 0 1 365.714286 679.058286v-334.262857l0.219428-3.584a44.324571 44.324571 0 0 1 37.302857-48.054858h0.731429A32.036571 32.036571 0 0 1 410.331429 292.571429c2.121143 0 3.657143 0.146286 5.12 0.292571z m39.424 128.146286v202.093714l159.158857-94.061714-159.158857-108.032z" fill="#d81e06" p-id="50053"></path></svg>