<?xml version="1.0" standalone="no"?><!DOCTYPE svg PUBLIC "-//W3C//DTD SVG 1.1//EN" "http://www.w3.org/Graphics/SVG/1.1/DTD/svg11.dtd"><svg t="1758454424338" class="icon" viewBox="0 0 1024 1024" version="1.1" xmlns="http://www.w3.org/2000/svg" p-id="38180" xmlns:xlink="http://www.w3.org/1999/xlink" width="200" height="200"><path d="M800 64a96 96 0 0 1 96 96v512a64 64 0 0 1-64 64H288C235.008 736 192 773.696 192 820.032c0 46.4 43.008 84 96.064 84h576a96 96 0 0 0 96-96V208a32 32 0 0 1 64 0V832a128 128 0 0 1-128 128H256c-70.4 0-128-50.432-128-112v-672C128 114.368 185.6 64 256 64z m68 728a28 28 0 1 1 0 56H347.968a28 28 0 1 1 0-56h520.032zM456.672 193.504a22.112 22.112 0 0 0-28.672 12.576l-23.872 61.056a22.112 22.112 0 0 0 12.512 28.704l61.056 23.872c2.56 0.992 5.312 1.504 8.064 1.472a22.112 22.112 0 0 0 7.744-42.688l-11.904-4.704a145.792 145.792 0 0 1 48.384-8.032 147.488 147.488 0 1 1-142.176 108.096 22.144 22.144 0 0 0-42.688-11.744 191.712 191.712 0 0 0 184.864 242.816 191.712 191.712 0 1 0-65.152-371.84l4.384-10.912a22.112 22.112 0 0 0-12.544-28.672z m95.424 118.464h-22.08l-1.984 0.288a7.36 7.36 0 0 0-5.44 7.104v90.624l-0.224 1.952a7.36 7.36 0 0 1-7.136 5.44h-68.416l-1.92 0.224a7.36 7.36 0 0 0-5.44 7.136v22.08l0.224 1.92a7.36 7.36 0 0 0 7.136 5.472h105.28l1.92-0.256a7.36 7.36 0 0 0 5.44-7.104V319.36l-0.224-1.92a7.36 7.36 0 0 0-7.136-5.44z" fill="#ED4662" p-id="38181"></path></svg>