<?xml version="1.0" standalone="no"?><!DOCTYPE svg PUBLIC "-//W3C//DTD SVG 1.1//EN" "http://www.w3.org/Graphics/SVG/1.1/DTD/svg11.dtd"><svg t="1758454354820" class="icon" viewBox="0 0 1024 1024" version="1.1" xmlns="http://www.w3.org/2000/svg" p-id="35181" xmlns:xlink="http://www.w3.org/1999/xlink" width="200" height="200"><path d="M895.97216797 234.07336425v614.35546875c0 26.11999512-21.17614747 47.29614258-47.29614258 47.29614258h-661.65161133c-26.11999512 0-47.29614258-21.17614747-47.29614258-47.29614258V234.07336425c0-26.11999512 21.17614747-47.29614258 47.29614258-47.29614257h661.65161133c26.11999512 0.08239747 47.29614258 21.17614747 47.29614258 47.29614258z" fill="#E73D1D" p-id="35182"></path><path d="M305.2647705 139.56347656h425.33569337c39.13879395 0 70.86181641 31.72302247 70.8618164 70.86181641s-31.72302247 70.86181641-70.86181641 70.8618164H305.2647705c-39.13879395 0-70.86181641-31.72302247-70.86181639-70.8618164-0.08239747-39.13879395 31.72302247-70.86181641 70.8618164-70.86181641z" fill="#FDC71A" p-id="35183"></path><path d="M754.1661377 719.55920411H423.42272949c-13.67797852 0-24.71923828-11.04125977-24.71923827-24.71923829s11.04125977-24.71923828 24.71923828-24.71923829H754.24853516c13.67797852 0 24.71923828 11.04125977 24.71923828 24.71923829s-11.12365723 24.71923828-24.80163575 24.71923828zM754.1661377 814.0690918H423.42272949c-13.67797852 0-24.71923828-11.04125977-24.71923827-24.71923828s11.04125977-24.71923828 24.71923828-24.71923829H754.24853516c13.67797852 0 24.71923828 11.04125977 24.71923828 24.71923829s-11.12365723 24.71923828-24.80163575 24.71923828zM612.44250489 235.14453125H423.42272949c-13.67797852 0-24.71923828-11.04125977-24.71923827-24.71923828s11.04125977-24.71923828 24.71923828-24.71923828h189.01977538c13.67797852 0 24.71923828 11.04125977 24.71923829 24.71923828s-11.12365723 24.71923828-24.71923828 24.71923828z" fill="#F0F0F4" p-id="35184"></path><path d="M293.39953613 742.1361084m-59.07897949-1e-8a59.0789795 59.0789795 0 1 0 118.15795898 0 59.0789795 59.0789795 0 1 0-118.15795898 0Z" fill="#FFFFFF" p-id="35185"></path><path d="M548.19885254 568.60705567c-6.26220703 0-12.44201661-2.30712891-17.22106934-7.00378419l-82.72705078-80.66711426c-9.80529786-9.55810547-9.97009278-25.21362305-0.41198731-34.93652343 9.55810547-9.80529786 25.21362305-9.97009278 34.93652344-0.41198731l82.72705079 80.66711427c9.80529786 9.55810547 9.97009278 25.21362305 0.4119873 34.93652343-4.8614502 4.8614502-11.28845215 7.41577148-17.7154541 7.41577148z" fill="#F0F0F4" p-id="35186"></path><path d="M548.19885254 568.60705567c-6.3446045 0-12.68920898-2.38952637-17.46826171-7.25097656-9.64050293-9.64050293-9.64050293-25.29602051 0-34.93652344l133.64868163-133.64868165c9.64050293-9.64050293 25.29602051-9.64050293 34.93652344 1e-8s9.64050293 25.29602051 0 34.93652344l-133.64868165 133.64868163c-4.77905273 4.77905273-11.12365723 7.25097656-17.46826171 7.25097657zM331.82312011 621.58862305c-6.3446045 0-12.68920898-2.38952637-17.46826172-7.25097657-9.64050293-9.64050293-9.64050293-25.29602051 0-34.93652343l133.64868164-133.64868164c9.64050293-9.64050293 25.29602051-9.64050293 34.93652344 0s9.64050293 25.29602051 0 34.93652343l-133.64868164 133.64868164c-4.77905273 4.8614502-11.12365723 7.25097656-17.46826172 7.25097657z" fill="#F0F0F4" p-id="35187"></path><path d="M683.82507324 362.11901855c21.50573731-5.35583497 43.34106445 7.74536133 48.69689942 29.3334961 1.56555176 6.3446045 1.56555176 13.01879883 0 19.36340332-5.43823242 21.50573731-27.27355958 34.52453614-48.77929688 29.16870117-7.00378418-1.73034668-13.43078614-5.35583497-18.53942871-10.46447753-15.65551758-15.73791504-15.65551758-41.11633301 0.08239746-56.77185059 5.10864258-5.19104004 11.53564453-8.81652833 18.53942871-10.62927247zM542.01904297 503.92504883c21.50573731-5.35583497 43.34106445 7.74536133 48.69689942 29.33349609 1.56555176 6.3446045 1.56555176 13.01879883 0 19.36340333-5.43823242 21.50573731-27.27355958 34.52453614-48.77929688 29.16870116-7.00378418-1.73034668-13.43078614-5.35583497-18.53942871-10.46447754-15.65551758-15.73791504-15.65551758-41.11633301 0.08239746-56.77185059 5.10864258-5.2734375 11.53564453-8.89892578 18.53942871-10.62927245zM447.50915528 426.38903808c21.50573731-5.35583497 43.34106445 7.74536133 48.69689941 29.3334961 1.56555176 6.3446045 1.56555176 13.01879883 0 19.36340332-5.43823242 21.50573731-27.27355958 34.52453614-48.77929688 29.16870117-7.00378418-1.73034668-13.43078614-5.35583497-18.53942871-10.46447753-15.65551758-15.73791504-15.65551758-41.11633301 0.08239746-56.77185059 5.10864258-5.19104004 11.53564453-8.81652833 18.53942871-10.62927247zM329.35119628 553.7755127c21.50573731-5.35583497 43.34106445 7.74536133 48.69689942 29.33349609 1.56555176 6.3446045 1.56555176 13.01879883 0 19.36340332-5.43823242 21.50573731-27.27355958 34.52453614-48.77929687 29.16870117-7.00378418-1.73034668-13.43078614-5.35583497-18.53942872-10.46447753-15.65551758-15.73791504-15.65551758-41.11633301 0.08239747-56.77185059 5.10864258-5.19104004 11.53564453-8.81652833 18.5394287-10.62927247z" fill="#F0F0F4" p-id="35188"></path></svg>