<?xml version="1.0" standalone="no"?><!DOCTYPE svg PUBLIC "-//W3C//DTD SVG 1.1//EN" "http://www.w3.org/Graphics/SVG/1.1/DTD/svg11.dtd"><svg t="1758453266649" class="icon" viewBox="0 0 1024 1024" version="1.1" xmlns="http://www.w3.org/2000/svg" p-id="30992" xmlns:xlink="http://www.w3.org/1999/xlink" width="200" height="200"><path d="M343.530667 786.410667c13.226667 0 25.685333 2.432 37.333333 7.253333a98.048 98.048 0 0 1 31.125333 20.394667c9.024 8.682667 15.850667 18.986667 20.693334 30.869333 4.8 11.904 7.210667 24.426667 7.210666 37.546667 0 13.098667-2.410667 25.6-7.232 37.525333a90.624 90.624 0 0 1-20.672 30.869333 106.581333 106.581333 0 0 1-31.125333 20.778667 91.221333 91.221333 0 0 1-37.333333 7.872c-13.866667 0-26.517333-2.624-37.952-7.872a110.186667 110.186667 0 0 1-30.72-20.778667 87.829333 87.829333 0 0 1-20.693334-30.869333 99.093333 99.093333 0 0 1-7.210666-37.546667c0-13.098667 2.410667-25.813333 7.232-37.525333a92.608 92.608 0 0 1 20.693333-30.869333 100.906667 100.906667 0 0 1 30.698667-20.373334 96.426667 96.426667 0 0 1 37.952-7.253333z m431.658666 2.026666a101.546667 101.546667 0 0 1 37.952 7.253334 91.776 91.776 0 0 1 31.125334 20.394666c8.618667 8.661333 15.658667 18.965333 20.672 30.869334 5.226667 11.904 7.829333 24.405333 7.829333 37.525333s-2.602667 25.621333-7.829333 37.546667a96.917333 96.917333 0 0 1-20.693334 30.656 99.178667 99.178667 0 0 1-31.104 20.778666 94.037333 94.037333 0 0 1-37.952 7.872 89.856 89.856 0 0 1-37.333333-7.872 102.08 102.08 0 0 1-30.72-20.778666 98.133333 98.133333 0 0 1-20.693333-30.677334 91.093333 91.093333 0 0 1-7.829334-37.525333c0-13.312 2.624-25.813333 7.829334-37.546667a105.237333 105.237333 0 0 1 20.693333-30.848 92.053333 92.053333 0 0 1 30.72-20.394666 97.749333 97.749333 0 0 1 37.333333-7.253334z m174.464-592.426666c19.285333 0 34.346667 2.624 45.184 7.893333 10.645333 5.226667 18.261333 11.690667 22.890667 19.349333 4.608 7.68 6.613333 15.744 6.229333 24.426667a86.976 86.976 0 0 1-3.626666 22.4 7940.544 7940.544 0 0 1-35.328 102.698667c-8.234667 23.402667-16.469333 46.4-24.298667 69.397333a1426.069333 1426.069333 0 0 0-18.069333 54.293333c-9.024 27.84-20.48 46.997333-34.346667 57.898667-13.845333 10.709333-30.72 16.149333-50.773333 16.149333H312.405333l15.658667 93.824h523.029333c33.109333 0 49.792 14.336 49.792 42.773334 0 13.930667-3.221333 25.813333-9.856 35.925333-6.613333 10.090667-19.477333 15.146667-38.933333 15.146667H308.181333c-13.845333 0-25.493333-3.050667-34.730666-9.301334a77.269333 77.269333 0 0 1-23.296-24.405333 148.544 148.544 0 0 1-15.04-32.896 296.469333 296.469333 0 0 1-8.832-33.28c-0.618667-4.266667-2.624-14.336-5.632-30.293333-3.2-15.936-7.04-35.904-11.434667-59.925334a12331.861333 12331.861333 0 0 0-15.061333-80.298666c-5.632-29.44-11.050667-59.306667-16.661334-89.173334-13.269333-70.229333-28.117333-148.522667-44.586666-234.666666H55.04c-10.453333 0-19.072-2.645333-25.898667-7.893334a73.557333 73.557333 0 0 1-17.28-18.965333A67.136 67.136 0 0 1 2.602667 113.706667 109.184 109.184 0 0 1 0 90.688c0-13.930667 4.608-25.429333 14.058667-34.496C23.466667 47.104 35.946667 42.666667 52.010667 42.666667H156.8c13.866667 0 24.896 2.026667 33.130667 6.250666 8.234667 4.245333 14.869333 9.493333 19.669333 15.744 4.821333 6.250667 8.234667 12.906667 10.453333 19.776 2.005333 7.04 3.818667 12.906667 5.226667 17.749334 1.386667 5.653333 2.794667 13.312 4.202667 23.402666l4.224 30.677334c2.005333 12.501333 4.202667 25.813333 6.229333 39.744h709.717333z" fill="#FF6033" p-id="30993"></path></svg>