<?xml version="1.0" standalone="no"?><!DOCTYPE svg PUBLIC "-//W3C//DTD SVG 1.1//EN" "http://www.w3.org/Graphics/SVG/1.1/DTD/svg11.dtd"><svg t="1762308133335" class="icon" viewBox="0 0 1335 1024" version="1.1" xmlns="http://www.w3.org/2000/svg" p-id="2655" xmlns:xlink="http://www.w3.org/1999/xlink" width="260.7421875" height="200"><path d="M1233.549 825.047V692.461c60.253-41.004 102.103-130.285 102.103-233.739 0-137.676-73.936-250.078-167.179-257.335v-0.416l-165.918-25.822v-59.615h-56.75V166.2l-134.916-26.535V75.79h-60.698v54.494L514.285 87.01V0h-66.337v76.637L342.18 60.179v0.296c60.55 8.222 103.231 167.046 96.048 359.78C431.045 612.99 376.55 768.12 315.555 771.83l87.189-2.85v40.16l-159.017 8.102v66.842l370.554-30.66 1.41 25.555-195.628 13.342 23.24 11.353v113.975l861.792-106.733v-84.028l-34.934-4.54-36.612 2.7z m-553.36-32.219v-34.49l160.975-6.677v32.085l-160.976 9.082zM528.517 204.503l27.87-13.623v-0.846l1.41 0.148 0.43-0.148v0.282l147.738 23.552v295.787l-145.912-4.11-31.551 3.546V204.503z m-53.1 600.791l8.31-39.179 125.196-4.11 2.122 36.478-135.643 6.826z m204.77 38.883L949.337 819.2v-40.871l-43.527 2.27 4.927-31.224 231.824-14.766 15.91 93.822-478.134 42.86-0.149-27.1z m-406.854-73.58c-56.009-2.122-97.458-133.18-99.981-302.955l-35.01-2.701c-21.562 8.934-17.066 54.895-17.066 54.895H0C0 381.685 105.16 375.02 105.16 375.02l70.85 1.277c12.183-180.135 65.402-319.28 123.785-316.995 62.033 2.404 106.421 163.528 99.135 359.973-7.272 196.43-63.563 353.74-125.596 351.321z m-23.107-449.744c-11.62 0-21.697 22.974-26.743 56.87l30.943 0.712-0.282 92.62-30.245-1.276c4.897 32.204 14.989 54.168 26.327 54.168 16.384 0 29.681-45.516 29.681-101.54 0-56.023-13.297-101.554-29.681-101.554z" fill="#FFA023" p-id="2656"></path></svg>