<?xml version="1.0" standalone="no"?><!DOCTYPE svg PUBLIC "-//W3C//DTD SVG 1.1//EN" "http://www.w3.org/Graphics/SVG/1.1/DTD/svg11.dtd"><svg t="1758454905750" class="icon" viewBox="0 0 1024 1024" version="1.1" xmlns="http://www.w3.org/2000/svg" p-id="74445" xmlns:xlink="http://www.w3.org/1999/xlink" width="200" height="200"><path d="M512 524.828444m-484.848485 0a375 375 0 1 0 969.69697 0 375 375 0 1 0-969.69697 0Z" fill="#FF2727" p-id="74446"></path><path d="M702.307556 786.668606 566.374141 786.668606l0-36.270545c136.413091-24.775111 239.568162-141.058586 239.568162-280.925091 0-117.338505-72.639354-217.945212-176.59604-261.975919-0.018101 0.024566-0.037495 0.049131-0.055596 0.073697-35.930505-15.282424-75.553616-23.875232-117.290667-23.875232-41.735758 0-81.362747 8.592808-117.293253 23.875232-0.018101-0.025859-0.034909-0.049131-0.05301-0.073697C290.699636 251.529051 218.056404 352.134465 218.056404 469.47297c0 139.867798 103.155071 256.14998 239.568162 280.925091l0 36.270545L321.691152 786.668606c-26.064162 0-27.196768 26.419717-27.196768 26.419717l0 52.871758 163.130182 0 108.749576 0 163.134061 0 0-52.871758C729.508202 798.535111 717.302949 786.668606 702.307556 786.668606L702.307556 786.668606 702.307556 786.668606zM610.235475 228.65196c-25.743515 23.387798-60.193616 37.785859-98.235475 37.785859-38.044444 0-72.493253-14.398061-98.236768-37.785859 30.434263-11.852283 63.529374-18.53802 98.236768-18.53802C546.70998 210.113939 579.806384 216.799677 610.235475 228.65196L610.235475 228.65196 610.235475 228.65196zM367.559111 469.47297c0-77.570586 64.602505-140.405657 144.439596-140.405657 79.78796 0 144.442182 62.835071 144.442182 140.405657 0 77.596444-64.654222 140.430222-144.442182 140.430222C432.161616 609.904485 367.559111 547.069414 367.559111 469.47297L367.559111 469.47297 367.559111 469.47297zM588.467717 469.47297c0-41.076364-34.214788-74.317576-76.467717-74.317576-14.549333 0-27.993212 4.155475-39.563636 10.996364 3.608566-1.101576 7.355475-1.820444 11.306667-1.820444 21.42901 0 38.768485 16.861091 38.768485 37.696646 0 20.807111-17.339475 37.666909-38.768485 37.666909-21.430303 0-38.745212-16.859798-38.745212-37.666909 0-3.868444 0.762828-7.50804 1.872162-11.020929-7.067152 11.252364-11.336404 24.32-11.336404 38.465939 0 41.102222 34.183758 74.339556 76.463838 74.339556C554.252929 543.812525 588.467717 510.575192 588.467717 469.47297L588.467717 469.47297 588.467717 469.47297zM588.467717 469.47297" fill="#FFFFFF" p-id="74447"></path></svg>