<?xml version="1.0" standalone="no"?><!DOCTYPE svg PUBLIC "-//W3C//DTD SVG 1.1//EN" "http://www.w3.org/Graphics/SVG/1.1/DTD/svg11.dtd"><svg t="1758454834299" class="icon" viewBox="0 0 1024 1024" version="1.1" xmlns="http://www.w3.org/2000/svg" p-id="64621" xmlns:xlink="http://www.w3.org/1999/xlink" width="200" height="200"><path d="M39.751553 661.465839v186.037267A87.453416 87.453416 0 0 0 127.204969 933.36646h775.950311a85.863354 85.863354 0 0 0 85.863354-85.863354V661.465839a125.614907 125.614907 0 0 1-124.024845-125.614907 124.024845 124.024845 0 0 1 124.024845-124.024845V225.78882a87.453416 87.453416 0 0 0-85.863354-87.453416H127.204969a87.453416 87.453416 0 0 0-87.453416 87.453416v186.037267a125.614907 125.614907 0 0 1 125.614907 124.024845 127.204969 127.204969 0 0 1-125.614907 125.614907z" fill="#2CA6E0" p-id="64622"></path><path d="M645.565217 671.006211m-84.273292 0a84.273292 84.273292 0 1 0 168.546584 0 84.273292 84.273292 0 1 0-168.546584 0Z" fill="#FFFFFF" p-id="64623"></path><path d="M699.627329 357.763975a20.670807 20.670807 0 0 1 0 31.801242L365.714286 725.068323a22.26087 22.26087 0 0 1-31.801243-31.801242l333.913044-335.503106a23.850932 23.850932 0 0 1 31.801242 0z" fill="#FFFFFF" p-id="64624"></path><path d="M383.204969 407.055901m-84.273292 0a84.273292 84.273292 0 1 0 168.546584 0 84.273292 84.273292 0 1 0-168.546584 0Z" fill="#FFFFFF" p-id="64625"></path><path d="M383.204969 407.055901m-42.931677 0a42.931677 42.931677 0 1 0 85.863354 0 42.931677 42.931677 0 1 0-85.863354 0Z" fill="#2CA6E0" p-id="64626"></path><path d="M645.565217 671.006211m-42.931677 0a42.931677 42.931677 0 1 0 85.863354 0 42.931677 42.931677 0 1 0-85.863354 0Z" fill="#2CA6E0" p-id="64627"></path></svg>