<?xml version="1.0" standalone="no"?><!DOCTYPE svg PUBLIC "-//W3C//DTD SVG 1.1//EN" "http://www.w3.org/Graphics/SVG/1.1/DTD/svg11.dtd"><svg t="1758453483454" class="icon" viewBox="0 0 1024 1024" version="1.1" xmlns="http://www.w3.org/2000/svg" p-id="55648" xmlns:xlink="http://www.w3.org/1999/xlink" width="200" height="200"><path d="M422.656 452.608h179.2a25.6 25.6 0 1 0 0-51.2h-179.2a25.6 25.6 0 1 0 0 51.2zM422.656 364.032h179.2a25.6 25.6 0 1 0 0-51.2h-179.2a25.6 25.6 0 0 0 0 51.2z" fill="#FF6450" p-id="55649"></path><path d="M870.4 25.6H153.6a128 128 0 0 0-128 128v716.8a128 128 0 0 0 128 128h716.8a128 128 0 0 0 128-128V153.6a128 128 0 0 0-128-128zM277.248 398.08v-1.792-3.328c0-112.896 105.216-204.8 234.752-204.8s234.752 91.392 234.752 204.8v194.304a84.736 84.736 0 0 1-84.736 84.736H361.984a84.736 84.736 0 0 1-84.736-84.736zM819.2 835.328H204.8v-39.68a75.008 75.008 0 0 1 74.752-74.752h464.896A75.008 75.008 0 0 1 819.2 795.648z" fill="#FF6450" p-id="55650"></path></svg>